<svg width="1440" height="1024" viewBox="0 0 1440 1024" fill="none" xmlns="http://www.w3.org/2000/svg">
<g clip-path="url(#clip0_11_127)">
<path d="M841.307 390.12C840.608 389.792 839.873 389.517 839.101 389.304C834.744 388.104 828.305 389.552 823.737 389.419C814.133 389.141 805.894 382.728 796.726 380.338C790.056 378.598 783.135 377.832 776.557 375.791C771.459 374.209 766.663 371.754 761.99 369.198C754.198 364.94 747.45 358.69 738.043 360.143C733.94 360.777 729.964 361.981 725.89 360.56C721.746 359.114 720.733 355.96 718.525 352.396C714.51 345.92 705.152 347.091 698.394 347.097C690.587 347.103 683.055 348.46 675.296 348.368C672.756 348.337 670.043 348.057 667.541 348.598C663.972 349.37 660.589 351.884 657.49 353.719C648.458 359.07 639.684 364.922 630.777 370.444C623.771 374.787 617.076 380.758 609.672 384.326C605.581 386.298 601.272 385.002 596.956 385.773C592.358 386.597 587.506 386.265 583.391 388.404C581.007 389.644 579.484 391.061 576.472 390.694C570.955 390.022 566.92 384.781 561.524 383.187C551.675 380.278 540.449 384.164 530.968 380.678C525.448 378.648 520.987 374.557 516.351 371.085C509.707 366.113 502.467 362.058 494.465 359.771C487.664 357.828 480.541 357.056 473.919 354.508C467.832 352.166 462.078 349.149 456.351 346.068C451.366 343.386 446.182 342.591 441.048 340.44C439.097 339.622 437.314 338.442 435.352 337.624C431.823 336.153 428.073 335.514 424.504 334.129C411.691 329.16 401.848 319.674 390.546 312.324C386.167 309.476 382.734 306.308 379.545 302.232C377.903 300.134 375.935 296.791 373.468 296C372.756 303.311 363.714 309.379 357.845 312.307C345.985 318.222 333.822 323.606 321.747 329.074C306.124 336.151 291.33 346.486 273.991 349.027C266.169 350.173 260.299 349.305 252.733 347.886C243.113 346.083 233.396 345.463 223.673 346.703C216.798 347.581 210.047 348.7 203.114 347.88C195.15 346.938 187.996 343.891 180.189 342.581C172.724 341.329 165.058 342.403 157.666 343.768C152.664 344.691 147.678 346.129 142.757 347.431C137.323 348.867 129.83 351.891 123.947 350.885C119.709 350.161 116.875 347.135 113.225 345.217C109.487 343.253 105.897 343.011 101.746 343.157C94.2597 343.422 86.9752 345.217 79.4411 344.48C69.8507 343.541 60.3026 336.205 53.1698 330.395C37.0226 317.245 19.2895 309.219 -0.179342 302.501C-3.9579 301.197 -10.0059 297.713 -13.7057 300.892C-15.8581 302.741 -18.4136 312.537 -18.5038 312.835C-22.7182 326.557 -26.3624 340.467 -30.4117 354.241C-36.5864 375.24 -43.0453 396.253 -48.0315 417.58C-51.0977 430.698 -54.1678 445.501 -44.132 456.589C-39.7832 461.393 -33.0363 464.292 -27.1937 466.275C-18.3617 469.274 -8.84238 471.592 0.16242 473.711C31.3451 481.052 62.7755 487.597 94.3845 492.798C132.28 499.032 170.301 505.101 208.288 510.739C247.808 516.604 288.285 521.604 328.208 523.685C410.941 527.996 494.236 522.954 576.579 514.805C628.02 509.715 679.042 501.208 730.905 503.514C743.481 504.072 756.02 505.169 768.589 505.841C783.031 506.614 794.969 502.195 807.065 494.426C817.576 487.676 826.425 478.653 833.327 468.26C838.056 461.139 840.817 453.459 843.928 445.57C845.823 440.766 849.144 436.279 850.394 431.295C851.769 425.815 853.391 420.545 853.268 414.842C853.084 406.488 849.912 394.166 841.307 390.12Z" fill="url(#paint0_linear_11_127)"/>
<path d="M-47.1005 451.53C-48.7253 449.615 -50.0066 447.596 -51 445.498V1024.1H1490.58V636.098L1375.58 603.098L1173.58 568.598L1053.58 513.627C1023.41 506.381 953.681 491.89 916.081 491.89C878.481 491.89 856.56 435.297 850.3 407C850.423 413.083 848.8 418.704 847.426 424.549C846.176 429.866 842.854 434.652 840.959 439.776C837.849 448.191 835.088 456.383 830.359 463.979C823.456 475.065 814.607 484.689 804.097 491.89C792.001 500.176 780.062 504.89 765.62 504.065C753.052 503.348 740.512 502.179 727.936 501.583C676.073 499.123 625.051 508.198 573.611 513.627C491.268 522.319 407.972 527.697 325.239 523.099C285.317 520.879 244.839 515.546 205.32 509.289C167.333 503.276 129.311 496.803 91.416 490.153C59.8071 484.605 28.3766 477.623 -2.80608 469.794C-11.8109 467.533 -21.3302 465.061 -30.1622 461.862C-36.0048 459.746 -42.7517 456.654 -47.1005 451.53Z" fill="url(#paint1_linear_11_127)"/>
</g>
<defs>
<linearGradient id="paint0_linear_11_127" x1="401.135" y1="295.999" x2="401.135" y2="409.926" gradientUnits="userSpaceOnUse">
<stop stop-color="#5D6783"/>
<stop offset="1" stop-color="#F5BA9D"/>
</linearGradient>
<linearGradient id="paint1_linear_11_127" x1="398.166" y1="280.234" x2="398.166" y2="401.756" gradientUnits="userSpaceOnUse">
<stop stop-color="#5D6783"/>
<stop offset="1" stop-color="#F5BA9D"/>
</linearGradient>
<clipPath id="clip0_11_127">
<rect width="1440" height="1024" fill="white"/>
</clipPath>
</defs>
</svg>
