<svg width="1440" height="1024" viewBox="0 0 1440 1024" fill="none" xmlns="http://www.w3.org/2000/svg">
<g clip-path="url(#clip0_10_108)">
<path d="M737.681 522.856C739.653 521.626 741.882 520.907 744.468 521.115C748.913 521.47 753.07 523.595 757.541 524.045C764.536 524.747 772.31 523.745 779.139 522.209C783.826 521.157 787.966 518.826 792.447 517.263C796.275 515.927 799.996 514.967 803.754 513.323C814.807 508.493 826.548 504.547 836.323 497.313C843.413 492.065 850.439 487.231 857.648 482.233C861.152 479.804 864.689 478.475 867.918 475.582C870.08 473.645 874.675 468.28 877.593 467.818C879.638 467.493 880.277 468.996 881.355 470.411C883.25 472.898 885.264 474.72 887.694 476.786C891.502 480.025 894.599 483.335 899.268 485.257C903.694 487.079 908.432 487.496 912.76 489.606C920.459 493.359 927.419 498.117 935.792 500.246C939.344 501.151 942.42 500.882 946.003 501.08C949.989 501.298 953.502 502.477 957.58 502.443C961.326 502.412 966.019 503.117 969.682 502.32C971.717 501.878 972.622 501.178 974.803 501.137C976.69 501.103 978.472 501.325 980.279 500.861C986.048 499.375 990.176 492.927 995.124 489.625C1000.62 485.956 1006.65 483.537 1011.62 479.105C1016.82 474.48 1022.4 470.344 1027.93 466.109C1037.88 458.482 1048.08 451.371 1058 443.706C1069.33 434.957 1079.91 425.228 1090.93 416.095C1097.47 410.68 1103.45 404.698 1109.81 399.093C1116.98 392.78 1123.41 385.615 1130.65 379.415C1137.65 373.417 1145.24 368.135 1152.55 362.53C1158.49 357.98 1163.19 352.349 1168.84 347.531C1172.92 344.049 1174.66 342.822 1178.91 345.314C1181.21 346.669 1183.78 347.712 1186.23 348.768C1191.32 350.959 1195.75 354.175 1200.63 356.759C1205.66 359.428 1210.81 362.39 1215.71 365.309C1222.17 369.164 1227.57 374.897 1233.69 379.296C1239.99 383.816 1246.51 388.339 1253.25 392.187C1260.53 396.349 1268.86 397.225 1276.23 401.293C1285.64 406.493 1294.88 413.96 1305.98 414.198C1318.27 414.461 1330.54 415.042 1342.55 418.201C1346.58 419.261 1349.88 421.809 1353.97 422.805C1357.96 423.778 1361.96 424.402 1366.06 424.404C1373.42 424.406 1380.45 421.254 1387.66 421.761C1392.16 422.075 1394.3 425.72 1398 428.098C1412.22 437.249 1427.74 444.438 1442.52 452.632C1451.82 457.789 1461.43 462.059 1471.77 464.59C1477.02 465.878 1481.68 464.922 1486.99 464.077C1496.19 462.616 1505.29 460.781 1514.1 457.686C1521.77 454.992 1529.24 451.642 1536.9 448.898C1540.57 447.588 1545.88 445.042 1549.99 445.991C1552.6 446.592 1554.2 448.422 1555.35 450.908C1556.51 453.435 1556.53 456.274 1556.85 458.98C1557.97 468.476 1559.27 477.972 1560.69 487.425C1563.42 505.473 1565.53 523.586 1567.81 541.695C1570.88 566.122 1573.16 592.161 1566.76 616.305C1563.92 626.997 1560.3 638.667 1553.73 647.658C1543.72 661.361 1530.64 671.96 1516.18 680.638C1501.46 689.476 1485.8 694.802 1469.36 699.498C1445.04 706.443 1420.41 712.37 1395.73 717.913C1334.8 731.601 1272.6 736.737 1210.39 740.29C1156.18 743.387 1102.15 746.181 1047.83 745.757C1002.22 745.4 955.97 741.356 911.631 730.178C878.037 721.707 843.158 711.773 813.986 692.671C793.543 679.284 776.661 662.657 758.991 646.051C748.254 635.962 738.647 624.415 729.913 612.538C722.657 602.673 714.33 591.865 711.206 579.846C708.979 571.271 706.537 561.214 709.09 552.463C710.617 547.233 712.302 543.057 716.824 539.986C722.25 536.302 727.964 533.011 732.22 527.921C733.841 525.988 735.623 524.143 737.681 522.856Z" fill="url(#paint0_linear_10_108)"/>
<path d="M1570.96 583.889C1568.12 595.295 1564.5 607.743 1557.93 617.333C1547.92 631.95 1534.84 643.255 1520.38 652.512C1505.65 661.939 1490 667.62 1473.56 672.629C1449.24 680.037 1424.61 686.359 1399.93 692.272C1339 706.872 1276.8 712.35 1214.59 716.141C1160.38 719.445 1106.35 722.424 1052.02 721.972C1006.42 721.591 960.168 717.278 915.829 705.354C882.235 696.319 847.356 685.722 818.184 665.347C797.742 651.068 780.859 633.332 763.189 615.619C752.453 604.857 742.845 592.54 734.111 579.871C726.855 569.349 718.528 557.82 715.404 545C691.436 580.837 631.6 652.512 584 652.512H400.5L164.5 692.272L-37 774.899V1024.4H1570.96V583.889Z" fill="url(#paint1_linear_10_108)"/>
</g>
<defs>
<linearGradient id="paint0_linear_10_108" x1="1139.43" y1="367.714" x2="1139.43" y2="479.178" gradientUnits="userSpaceOnUse">
<stop stop-color="#2F4C6D"/>
<stop offset="1" stop-color="#3C5473"/>
</linearGradient>
<linearGradient id="paint1_linear_10_108" x1="1143.62" y1="318.726" x2="1143.62" y2="437.621" gradientUnits="userSpaceOnUse">
<stop stop-color="#2F4C6D"/>
<stop offset="1" stop-color="#3C5473"/>
</linearGradient>
<clipPath id="clip0_10_108">
<rect width="1440" height="1024" fill="white"/>
</clipPath>
</defs>
</svg>
