<svg width="1440" height="1024" viewBox="0 0 1440 1024" fill="none" xmlns="http://www.w3.org/2000/svg">
<g clip-path="url(#clip0_6_74)">
<path d="M355.746 567.539C356.539 567.318 357.347 567.139 358.184 567.042C361.16 566.698 363.069 567.249 365.58 565.972C364.528 566.508 356.858 568.414 357.639 565.237C357.95 563.975 366.905 563.636 368.385 563.708C370.152 563.795 371.851 564.375 373.621 564.421C380.387 564.603 387.681 561.163 393.96 559.11C404.138 555.783 414.337 552.296 424.962 550.699C435.345 549.136 445.656 548.629 456.035 546.97C463.973 545.703 472.912 543.18 479.786 538.693C481.665 537.466 482.852 535.74 484.91 534.728C486.811 533.793 488.301 534.425 490.092 533.891C491.54 533.459 491.644 532.142 492.842 531.523C494.908 530.458 495.987 531.9 497.674 532.58C503.653 534.989 512.165 529.11 518.255 526.831C523.825 524.746 528.857 522.162 534.577 520.714C536.664 520.186 537.532 519.504 539.663 520.038C541.31 520.451 542.045 521.947 543.269 522.883C546.548 525.393 550.943 526.601 554.819 528.073C559.304 529.778 563.077 531.278 567.904 531.322C575.521 531.389 581.452 530.921 588.613 528.108C593.809 526.067 599.083 524.421 604.265 522.308C608.562 520.555 613.834 517.845 618.532 517.239C620.209 517.022 622.106 517.1 623.805 517.175C626.796 517.308 626.076 517.611 628.18 519.406C630.565 521.44 633.578 523.208 636.187 525.04C641.569 528.816 645.326 534.511 650.226 538.891C664.305 551.474 676.685 565.646 690.31 578.715C698.817 586.875 709.992 592.929 720.139 598.816C723.558 600.799 727.147 602.441 730.672 604.224C734.904 606.367 739.168 607.44 743.473 609.253C747.292 610.862 750.131 613.847 753.712 615.819C757.256 617.772 760.415 619.584 763.692 621.931C765.971 623.563 768.486 624.144 770.702 625.955C773.578 628.305 776.195 629.342 779.25 631.333C782.593 633.512 786.112 635.455 788.297 638.811C790.006 641.436 791.463 642.92 794.702 642.676C797.528 642.463 797.693 641.505 800.051 640.025C803.304 637.984 807.08 636.498 810.454 634.48C814.918 631.809 819.96 629.933 824.205 626.926C826.991 624.953 829.389 623.134 832.812 622.414C837.305 621.47 839.972 623.516 843.896 625.34C851.139 628.704 858.314 632.07 865.542 635.467C875.818 640.293 887.937 641.419 897.082 648.34C900.675 651.059 904.054 654.812 908.681 655.5C913.773 656.256 920.168 653.62 925.137 652.835C929.715 652.113 935.428 650.37 940.056 650.516C943.744 650.633 946.981 651.906 950.802 651.65C961.404 650.946 972.344 647.447 982.405 644.31C1004.63 637.377 1027.15 627.362 1046.63 614.473C1052.91 610.313 1058.65 605.534 1065.12 601.644C1070.1 598.654 1074.77 595.4 1078.95 591.337C1080.64 589.696 1084 585.506 1086.6 585.197C1088.98 584.913 1089.04 585.952 1090.87 587.242C1094.91 590.087 1100.74 591.372 1105.34 592.587C1119.03 596.203 1132.63 600.755 1146.14 604.979C1173.74 613.603 1201.32 622.8 1228.2 633.441C1237.62 637.172 1248.98 643.982 1259.54 642.396C1275.13 640.055 1289.51 633.673 1304.2 628.174C1309.17 626.312 1313.67 624.544 1319.01 624.72C1323.23 624.859 1324.44 623.394 1327.61 620.723C1340.04 610.224 1351.6 600.068 1366.25 592.704C1389.74 580.892 1408.41 560.986 1428.4 544.386C1446.96 528.962 1467.32 515.804 1487.12 502.086C1491.86 498.803 1496.58 495.535 1501.08 491.922C1503.92 489.641 1506.81 486.269 1510.24 485C1510.09 487.857 1508.93 490.962 1508.56 493.771C1507.62 500.819 1507.58 507.81 1507.61 514.916C1507.67 535.803 1507.63 556.62 1506.71 577.492C1506 593.332 1505.11 609.168 1505.04 625.028C1504.98 638.268 1505.19 651.251 1503.93 664.455C1503.15 672.617 1502.65 680.757 1499.09 688.257C1495.9 694.989 1491.35 699.886 1485.31 704.124C1479.21 707.526 1472.84 710.274 1466.2 712.368C1456.28 716.126 1446.19 719.376 1435.93 722.12C1406.21 730.925 1376.09 738.824 1345.83 745.534C1271.99 761.904 1197.92 776.473 1123.08 787.365C1019.8 802.395 915.893 813.424 811.429 810.615C728.197 808.378 645.338 804.496 563.471 788.195C533.4 782.208 503.613 774.895 474.125 766.478C454.52 761.086 435.366 754.439 416.66 746.537C399.509 740.456 383.025 732.882 367.214 723.811C343.277 707.505 320.549 685.673 309.493 658.445C302.975 642.394 300.177 623.578 306.755 606.999C311.227 595.728 317.087 585.499 326.092 577.337C332.689 571.356 338.746 569.948 347.283 569.712C350.341 569.626 352.947 568.32 355.746 567.539Z" fill="url(#paint0_linear_6_74)"/>
<path d="M1507.3 654.286C1506.52 662.992 1506.02 671.676 1502.46 679.676C1499.27 686.856 1494.72 692.08 1488.68 696.6C1482.58 700.229 1476.21 703.16 1469.57 705.394C1459.65 709.402 1449.56 712.869 1439.31 715.796C1409.58 725.188 1379.46 733.614 1349.2 740.771C1275.36 758.233 1201.29 773.773 1126.45 785.391C1023.17 801.423 919.264 813.187 814.8 810.19C731.568 807.805 648.709 803.663 566.842 786.276C536.771 779.89 506.984 772.089 477.497 763.111C457.891 757.36 438.738 750.27 420.031 741.84C402.88 735.354 386.396 727.275 370.585 717.6C346.649 700.207 323.92 676.919 312.864 647.876C306.346 630.755 303.548 610.684 310.126 593C289.084 611.292 237.1 647.876 197.5 647.876C157.9 647.876 117.667 656.944 102.5 661.478L41 687.478L-11 717.6V1037.98H1507.3V654.286Z" fill="url(#paint1_linear_6_74)"/>
</g>
<defs>
<linearGradient id="paint0_linear_6_74" x1="906.613" y1="576.063" x2="906.613" y2="714.303" gradientUnits="userSpaceOnUse">
<stop stop-color="#102D52"/>
<stop offset="1" stop-color="#124162"/>
</linearGradient>
<linearGradient id="paint1_linear_6_74" x1="909.984" y1="560.002" x2="909.984" y2="707.458" gradientUnits="userSpaceOnUse">
<stop stop-color="#012D52"/>
<stop offset="1" stop-color="#124162"/>
</linearGradient>
<clipPath id="clip0_6_74">
<rect width="1440" height="1024" fill="white"/>
</clipPath>
</defs>
</svg>
