<svg width="1440" height="1024" viewBox="0 0 1440 1024" fill="none" xmlns="http://www.w3.org/2000/svg">
<g clip-path="url(#clip0_5_62)">
<path d="M-18.2029 478.151C-16.3789 476.415 -14.5818 474.639 -12.7943 472.811C-12.5524 472.951 -12.1703 473.207 -11.8996 473.307C-10.4634 472.395 -9.15206 471.3 -7.86758 470.179C0.885696 462.543 8.07994 452.966 17.2595 445.854C22.9887 441.417 28.8831 436.429 34.7756 432.278C36.4825 431.076 38.6732 429.78 40.7756 429.556C45.4873 429.051 49.0796 433.129 53.2614 434.555C57.3951 435.963 61.79 436.068 65.7644 434.085C76.4761 428.74 86.8326 420.975 96.1369 413.468C112.958 399.895 129.785 386.452 144.84 370.855C149.254 366.282 154.776 356.916 161.258 355C175.373 375.41 196.365 389.831 215.329 406.037C236.777 424.37 261.704 438.376 282.803 457C303.812 475.545 326.525 491.911 346.856 511.252C368.264 531.617 388.685 552.138 411.948 570.445C428.865 583.758 447.117 600.606 468.488 606.597C474.58 608.304 480.517 608.288 486.74 608.319C487.784 608.325 488.829 608.308 489.871 608.261C490.76 608.221 491.693 608.054 492.58 608.135C493.189 608.19 493.74 608.421 494.36 608.354C494.833 608.302 495.276 608.114 495.745 608.046C496.186 607.983 496.635 608.043 497.073 607.964C497.519 607.883 497.87 607.695 498.279 607.532C499.178 607.171 500.04 606.856 500.854 606.391C501.551 605.992 502.326 605.796 503.033 605.439C503.782 605.059 504.475 604.594 505.241 604.226C505.537 604.084 505.888 603.986 506.201 603.872C506.725 603.68 506.911 603.525 507.341 603.206C508.998 601.975 510.542 600.677 512.353 599.625C514.073 598.627 515.968 598.051 517.652 596.978C518.529 596.417 519.259 595.73 520.073 595.09C520.745 594.562 521.465 594.228 522.225 593.856C522.784 593.581 523.227 593.374 523.611 592.89C523.805 592.646 523.792 592.516 524.082 592.347C524.902 591.868 525.929 593.316 526.459 593.888C531.247 599.061 536.604 603.577 542.057 608.033C543.073 608.864 543.979 609.726 544.86 610.688C545.761 611.669 546.953 612.307 547.953 613.171C549.099 614.162 550.357 614.983 551.613 615.834C555.255 618.297 558.987 620.622 562.787 622.834C570.429 627.285 578.332 631.275 586.34 635.02C602.191 642.437 618.467 648.896 634.372 656.194C665.979 670.694 698.339 681.744 732.05 690.103C745.921 693.544 758.631 697.286 772.948 698.674C791.536 700.475 810.682 699.106 829.302 698.154C849.95 697.098 870.853 693.529 891.259 690.374C916.319 686.5 940.92 682.412 965.613 676.654C1004.48 667.591 1043.9 661.369 1082.85 652.755C1094.07 650.275 1105.45 649.816 1116.77 648.009C1124.01 646.855 1130.07 647.195 1137.16 648.745C1141.36 649.662 1145.44 651.794 1149.42 653.541C1156.25 656.544 1163.06 659.387 1170.08 662.014C1178.85 665.299 1188.4 668.19 1197.45 670.471C1204.95 672.361 1209.84 675.127 1216.92 678.004C1218.97 678.837 1238.57 681.652 1234.77 686.647C1234.63 686.832 1227.08 688.567 1226.17 688.957C1216.18 693.223 1205.73 696.416 1195.62 700.408C1132.99 725.145 1067.15 743.228 1002.14 760.462C946.933 775.1 890.938 785.451 834.84 796.005C782.664 805.822 730.334 816.299 677.686 823.225C626.439 829.966 575.177 831.244 523.55 831.093C465.109 830.92 407.202 829.935 348.843 826.174C312.911 823.858 277.437 821.143 241.394 821.285C213.42 821.395 185.444 821.239 157.469 821.479C141.841 821.614 126.196 820.75 110.69 818.764C98.1183 817.156 85.2217 815.487 73.7247 809.863C64.8927 805.543 57.4969 802.491 47.4361 802.191C40.9695 801.999 36.014 799.858 29.7721 798.76C23.4726 797.652 16.981 798.33 10.6277 798.334C3.01687 798.336 -3.92393 798.493 -11.3947 799.826C-22.4174 801.794 -34.6151 800.2 -45.7761 800.246C-73.2494 800.361 -99.9047 793.424 -126.147 785.785C-142.88 780.914 -160.15 780.021 -177.142 776.127C-196.938 771.59 -215.973 763.948 -235.749 759.191C-243.83 757.246 -251.919 755.598 -259.724 752.688C-263.402 751.315 -270.556 749.535 -273.536 746.5C-278.52 741.423 -269.435 735.955 -266.265 732.372C-254.38 718.936 -239.704 708.107 -227.957 694.475C-210.13 673.783 -198.81 647.299 -186.022 623.383C-172.46 598.018 -154.874 575.264 -143.297 548.878C-140.77 543.118 -138.364 537.886 -137.65 531.588C-137.42 529.557 -138.378 527.961 -136.425 526.379C-133.937 527.806 -132.034 529.989 -129.513 531.402C-122.766 535.188 -114.182 537.122 -106.54 537.342C-93.2692 537.726 -83.1969 535.918 -72.61 527.57C-57.4401 515.608 -45.0657 500.755 -30.034 488.555C-25.8868 485.182 -21.9892 481.753 -18.2029 478.151Z" fill="url(#paint0_linear_5_62)"/>
<path d="M1233.3 676.824C1233.16 677.02 1225.61 678.872 1224.7 679.288C1214.71 683.838 1204.26 687.244 1194.16 691.502C1131.52 717.888 1065.68 737.176 1000.68 755.559C945.469 771.173 889.474 782.214 833.376 793.472C781.2 803.943 728.87 815.119 676.222 822.506C624.975 829.697 573.713 831.061 522.086 830.899C463.645 830.715 405.738 829.664 347.38 825.652C311.447 823.182 275.973 820.286 239.931 820.438C211.956 820.554 183.98 820.389 156.005 820.645C140.377 820.788 124.732 819.866 109.227 817.749C96.6544 816.032 83.7578 814.253 72.2608 808.254C63.4288 803.646 56.033 800.39 45.9722 800.07C39.5056 799.866 34.5501 797.582 28.3082 796.411C22.0086 795.229 15.5171 795.952 9.16382 795.956C1.55294 795.958 -5.38786 796.126 -12.8586 797.547C-23.8813 799.646 -36.079 797.947 -47.24 797.996C-74.7133 798.119 -101.369 790.719 -127.611 782.57C-144.344 777.374 -161.614 776.422 -178.606 772.269C-198.402 767.429 -217.436 759.278 -237.212 754.203C-245.294 752.129 -253.383 750.372 -261.188 747.267C-264.866 745.802 -272.02 743.904 -275 740.666V1023.65H1481.26V796.411L1432.26 772.269L1344.26 740.666L1295.26 703.648L1233.3 676.824Z" fill="url(#paint1_linear_5_62)"/>
</g>
<defs>
<linearGradient id="paint0_linear_5_62" x1="480.13" y1="636.082" x2="480.13" y2="446.952" gradientUnits="userSpaceOnUse">
<stop stop-color="#102D52"/>
<stop offset="1" stop-color="#0F122E"/>
</linearGradient>
<linearGradient id="paint1_linear_5_62" x1="478.666" y1="596.063" x2="478.666" y2="394.325" gradientUnits="userSpaceOnUse">
<stop stop-color="#102D52"/>
<stop offset="1" stop-color="#2F1949"/>
</linearGradient>
<clipPath id="clip0_5_62">
<rect width="1440" height="1024" fill="white"/>
</clipPath>
</defs>
</svg>
