<svg width="1440" height="1024" viewBox="0 0 1440 1024" fill="none" xmlns="http://www.w3.org/2000/svg">
<g clip-path="url(#clip0_10_100)">
<path d="M976.62 715.731C975.792 711.663 974.426 707.381 970.791 707.473C968.811 707.523 967.7 708.718 965.547 708.188C962.475 707.431 959.181 705.091 956.393 703.608C943.4 696.698 931.652 686.234 917.323 682.786C913.139 681.78 910.463 679.309 907.022 676.892C903.38 674.334 899.194 674.204 895.469 672.113C892.127 670.235 889.235 666.18 886.29 663.557C882.313 660.015 877.959 656.941 874.059 653.287C870.738 650.175 867.297 647.796 863.503 645.279C859.851 642.858 856.699 639.275 852.984 637.184C850.102 635.564 845.885 635.366 843.309 632.964C841.406 631.19 840.649 628.3 838.929 626.311C836.573 623.587 834.553 623.327 831.441 622.068C824.656 619.322 820.436 612.339 814.931 607.81C809.739 603.54 803.367 600.364 798.48 595.749C793.045 590.615 788.126 584.624 782.831 579.294C777.915 574.344 772.998 569.911 768.475 564.583C766.305 562.03 763.417 558.56 759.8 558.833C757.552 559.002 756.329 560.175 754.386 561.123C750.878 562.836 747.963 565.678 744.816 568.158C742.53 569.961 741.495 570.867 738.995 569.464C737.313 568.519 735.568 566.422 734.149 565.144C727.435 559.1 719.904 553.862 712.614 548.536C705.387 543.256 699.464 536.751 692.944 530.672C683.943 522.278 674.796 514.344 666.3 505.409C662.324 501.225 658.165 497.13 654.336 492.819C650.082 488.033 646.57 482.586 642.052 478.041C637.081 473.039 631.133 470.663 625.431 466.817C619.431 462.771 615.451 457.318 610.422 452.294C606.494 448.369 601.024 445.499 597.581 441.248C593.768 436.538 590.598 431.923 585.817 428.008C580.747 423.853 575.999 419.792 571.32 415.203C568.526 412.463 566.37 409.326 563.666 406.592C560.61 403.499 558.55 399.901 556.338 396.072C553.508 391.174 549.867 386.647 546.747 381.918C542.566 375.578 538.267 369.31 534.227 362.874C532.447 360.038 530.579 356.801 528.168 354.458C526.518 352.857 524.708 352.471 522.778 351.361C520.038 349.787 517.901 347.051 515.494 345.025C514.157 343.902 513.268 342.241 512.168 340.899C510.763 339.185 509.39 338.509 507.324 337.914C505.417 337.365 504.162 336.297 502.559 337.678C501.447 338.636 500.75 339.757 499.444 340.561C498.786 340.966 498.219 341.205 497.682 341.704C496.772 342.55 495.984 343.551 494.959 344.269C494.013 344.933 493.264 344.858 492.219 345.106C490.952 345.406 489.794 346.404 488.704 347.084C487.377 347.909 486.047 348.725 484.712 349.537C479.563 352.671 474.369 355.729 469.235 358.888C463.73 362.275 458.6 366.232 453.061 369.565C450.663 371.009 447.961 371.99 445.598 373.439C445.162 373.706 444.849 373.958 444.569 374.388C444.071 375.15 443.991 375.882 443.192 376.452C442.38 377.028 441.107 377.362 440.112 377.289C436.632 377.032 433.416 373.459 431.964 370.54C430.964 368.532 429.904 368.252 427.798 367.562C426.077 367 424.416 366.159 422.888 367.301C422.024 367.948 421.354 368.795 420.5 369.463C418.777 370.809 417.625 372.359 416.105 373.881C413.557 376.433 410.65 378.476 407.482 380.173C404.831 381.594 402.179 382.876 399.464 384.097C396.684 385.347 395.256 388.517 392.52 389.702C391.414 390.18 390.269 390.186 389.169 390.769C381.831 394.663 375.094 401.091 367.437 404.298C359.298 407.706 350.289 409.159 342.025 412.421C337.364 414.261 331.74 414.564 327.305 416.497C322.265 418.694 317.67 423.983 312.697 426.806C310.182 428.232 307.821 429.932 304.791 429.882C300.669 429.815 299.215 427.223 295.567 426.095C290.437 424.511 286.324 427.384 281.83 429.557C273.913 433.384 267.587 435.897 258.667 435.45C251.53 435.091 244.013 434.152 236.978 432.693C234.872 432.255 232.956 431.508 230.765 431.792C224.27 432.631 219.399 439.263 214.353 442.811C195.577 456.011 169.218 456.616 147.357 459.599C131.3 461.79 115.172 463.29 99.1934 466.039C85.9704 468.314 72.9029 471.857 59.5646 473.337C36.467 475.898 14.3678 481.799 -8.31891 486.479C-15.8741 488.039 -23.5848 489.674 -30.9692 491.909C-38.1692 494.088 -44.3842 497.721 -51.2732 500.547C-57.9471 503.285 -66.1724 503.644 -72.0552 507.797C-81.1906 514.245 -75.3826 522.794 -72.6735 530.974C-69.0543 541.904 -70.6901 555.166 -69.7244 566.586C-68.2863 583.585 -66.6351 601.069 -62.2728 617.619C-58.8629 630.556 -53.9189 645.511 -45.684 656.073C-38.3996 665.418 -30.3394 672.299 -20.5916 678.885C14.3832 702.518 56.9707 712.241 96.3633 726.22C145.965 743.823 194.832 763.207 244.933 779.408C264.749 785.817 284.606 792.213 304.608 798.026C333.852 806.524 363.718 812.597 393.188 820.197C461.952 837.928 529.707 860.436 601.277 862.861C633.33 863.948 665.528 861.776 697.302 857.445C730.468 852.923 763.151 845.45 794.625 834.013C808.68 828.906 823.018 823.234 836.253 816.318C845.478 811.499 854.391 806.1 863.568 801.198C876.989 794.029 890.481 787.514 903.314 779.31C919.043 769.255 934.879 760.463 951.875 752.808C961.859 748.312 971.705 742.137 978.018 733.046C981.906 727.447 979.179 726.122 977.766 721.428C977.359 720.078 977.069 717.935 976.62 715.731Z" fill="url(#paint0_linear_10_100)"/>
<path d="M-74.0509 538.986C-75.0166 526.805 -73.3808 512.659 -77 501V1031.11L1440.08 1039.61V841.108L1408.58 805.368L1161.58 779.608C1136.24 771.941 1075.28 758.465 1034.08 765.892C997.94 772.407 980.889 738.209 975.188 713.729C974.871 714.553 974.387 715.475 973.691 716.544C967.378 726.241 957.533 732.827 947.549 737.624C930.553 745.789 914.716 755.167 898.988 765.892C886.155 774.644 872.663 781.592 859.242 789.24C850.064 794.468 841.152 800.227 831.926 805.368C818.692 812.745 804.353 818.794 790.299 824.242C758.824 836.442 726.142 844.413 692.976 849.236C661.202 853.856 629.003 856.172 596.951 855.013C525.381 852.427 457.626 828.418 388.861 809.505C359.391 801.399 329.525 794.921 300.282 785.856C280.279 779.655 260.423 772.833 240.606 765.997C190.506 748.716 141.638 728.039 92.0368 709.263C52.6442 694.352 10.0566 683.981 -24.9181 658.772C-34.6659 651.747 -42.7261 644.407 -50.0106 634.44C-58.2454 623.173 -63.1894 607.222 -66.5994 593.422C-70.9616 575.768 -72.6128 557.119 -74.0509 538.986Z" fill="url(#paint1_linear_10_100)"/>
</g>
<defs>
<linearGradient id="paint0_linear_10_100" x1="451.508" y1="354.083" x2="451.508" y2="625.443" gradientUnits="userSpaceOnUse">
<stop stop-color="#102D52"/>
<stop offset="1" stop-color="#124162"/>
</linearGradient>
<linearGradient id="paint1_linear_10_100" x1="447.182" y1="312.317" x2="447.182" y2="601.768" gradientUnits="userSpaceOnUse">
<stop stop-color="#102D52"/>
<stop offset="1" stop-color="#124162"/>
</linearGradient>
<clipPath id="clip0_10_100">
<rect width="1440" height="1024" fill="white"/>
</clipPath>
</defs>
</svg>
