<svg width="1440" height="1024" viewBox="0 0 1440 1024" fill="none" xmlns="http://www.w3.org/2000/svg">
<g clip-path="url(#clip0_5_66)">
<path d="M-14.0266 580.165C-10.49 576.926 -4.84518 575.747 -0.381184 574.443C5.5881 572.7 10.9718 569.624 16.7663 567.449C23.6553 564.86 30.5827 562.985 37.0454 559.352C42.6633 556.194 48.6057 553.838 54.4041 551.052C59.1484 548.773 63.718 545.958 68.7734 544.426C70.4323 543.923 72.7631 542.863 74.4988 543.015C74.7043 545.937 75.6278 547.029 77.3903 549.259C82.3555 555.541 86.2972 562.046 92.7561 566.938C100.968 573.157 110.096 578.064 118.814 583.527C125.755 587.876 133.032 591.416 140.693 594.327C144.794 595.886 148.127 597.811 152.549 597.656C157.172 597.493 162.045 596.437 166.592 595.45C168.575 595.02 173.179 593.192 175.184 593.995C176.71 594.605 178.878 597.445 180.112 598.528C189.442 606.715 201.432 612.774 213.125 616.883C224.601 620.915 238.229 620.149 250.202 619.767C265.408 619.279 280.163 614.708 295.257 613.982C297.58 613.87 299.842 613.17 302.115 612.734C304.68 612.242 307.212 612.367 309.733 611.945C312.832 611.428 316.042 610.42 319.232 611.221C319.429 614.99 325.266 620.034 327.908 622.078C332.432 625.577 337.293 628.691 341.993 631.943C347.29 635.611 351.981 640.084 356.65 644.508C364.807 652.232 375.148 657.677 385.871 661.085C390.7 662.619 395.229 662.498 400.156 663.153C404.05 663.671 407.966 664.409 411.881 664.752C414.097 664.946 416.338 665.015 418.534 664.624C420.389 664.293 422.122 663.493 424.075 663.861C426.312 664.284 424.889 664.094 426.126 665.564C427.224 666.87 429.822 668.362 431.235 669.149C434.631 671.042 438.798 672.571 442.43 673.913C448.073 675.998 453.528 678.657 458.942 681.276C471.265 687.239 484.636 691.851 498.105 694.618C511.216 697.312 523.881 698.876 537.275 698.396C544.661 698.132 552.222 696.647 559.426 695.029C566.579 693.422 573.248 690.313 580.434 688.752C584.956 687.769 589.149 687.821 593.469 689.28C595.066 689.82 596.775 690.724 598.327 691.392C603.866 693.779 609.384 695.566 615.142 697.427C623.504 700.126 631.792 702.006 640.311 704.124C651.132 706.814 661.85 710.444 672.773 712.668C691.451 716.469 709.879 721.237 728.887 723.197C744.848 724.843 760.893 724.355 776.912 724.355C783.728 724.355 790.62 724.668 797.429 724.405C802.261 724.219 806.919 723.349 811.763 723.385C816.233 723.42 819.246 724.03 823.439 725.747C826.953 727.185 830.439 728.523 834.141 729.368C837.993 730.247 841.283 732.223 844.997 733.39C851.421 735.41 857.955 736.917 864.596 737.9C866.704 738.213 882.068 741.084 880.895 743.344C875.479 744.843 869.849 745.651 864.337 746.706C851.425 749.177 838.599 751.938 825.637 754.149C808.438 757.085 791.147 758.742 773.738 759.833C732.093 762.442 690.312 763.11 648.604 764.151C617.486 764.926 586.332 765.61 555.255 767.415C532.146 768.757 509.087 770.617 486.007 772.355C436.713 776.068 387.221 779.094 337.792 780.298C314.339 780.87 290.864 780.574 267.434 779.417C242.877 778.203 218.579 774.987 194.266 771.558C161.375 766.921 128.197 763.811 95.6553 756.999C82.8719 754.322 70.2748 751.045 57.7123 747.483C45.0787 743.902 31.4102 740.56 19.919 734.018C5.83386 726 -8.35302 715.665 -16.1002 701.098C-21.7085 690.551 -24.6999 678.893 -27.0404 667.264C-28.0714 662.141 -29.0391 657.08 -28.9988 651.835C-28.9681 647.797 -28.346 643.874 -27.7719 639.881C-27.0519 634.869 -26.0132 629.975 -25.2125 624.989C-24.4637 620.32 -24.0913 615.552 -23.1754 610.912C-21.8065 603.982 -17.3674 597.867 -17.2119 590.648C-17.1793 589.148 -17.4865 587.609 -17.2407 586.119C-16.8221 583.563 -15.6452 581.649 -14.0266 580.165Z" fill="url(#paint0_linear_5_66)"/>
<path d="M878.935 740.152C873.519 741.751 867.89 742.614 862.377 743.738C849.465 746.374 836.64 749.319 823.678 751.678C806.478 754.81 789.187 756.577 771.778 757.74C730.133 760.523 688.352 761.236 646.644 762.346C615.527 763.174 584.373 763.903 553.296 765.828C530.187 767.259 507.127 769.244 484.047 771.097C434.753 775.058 385.261 778.286 335.833 779.57C312.38 780.18 288.904 779.865 265.474 778.63C240.917 777.335 216.62 773.905 192.307 770.247C159.415 765.301 126.238 761.984 93.6957 754.717C80.9123 751.862 68.3152 748.366 55.7526 744.567C43.119 740.748 29.4506 737.182 17.9594 730.205C3.87424 721.652 -10.3126 710.628 -18.0598 695.09C-23.6682 683.84 -26.6595 671.405 -29 659V1024.02H1469.4V898.521L1427.9 883.021L1389.4 865.521L1305.9 848.021L1197.9 820.521L1119.9 806.521L1023.9 779.57L958.401 751.678L878.935 740.152Z" fill="url(#paint1_linear_5_66)"/>
</g>
<defs>
<linearGradient id="paint0_linear_5_66" x1="425.979" y1="716.675" x2="425.979" y2="528.199" gradientUnits="userSpaceOnUse">
<stop stop-color="#102D52"/>
<stop offset="1" stop-color="#0F122E"/>
</linearGradient>
<linearGradient id="paint1_linear_5_66" x1="424.019" y1="711.705" x2="424.019" y2="510.665" gradientUnits="userSpaceOnUse">
<stop stop-color="#012D52"/>
<stop offset="1" stop-color="#230F38"/>
</linearGradient>
<clipPath id="clip0_5_66">
<rect width="1440" height="1024" fill="white"/>
</clipPath>
</defs>
</svg>
