<svg width="1440" height="1024" viewBox="0 0 1440 1024" fill="none" xmlns="http://www.w3.org/2000/svg">
<g clip-path="url(#clip0_11_127)">
<path d="M794.307 506.12C793.608 505.792 792.873 505.517 792.101 505.304C787.744 504.104 781.305 505.552 776.737 505.419C767.133 505.141 758.894 498.728 749.726 496.338C743.056 494.598 736.135 493.832 729.557 491.791C724.459 490.209 719.663 487.754 714.99 485.198C707.198 480.94 700.45 474.69 691.043 476.143C686.94 476.777 682.964 477.981 678.89 476.56C674.746 475.114 673.733 471.96 671.525 468.396C667.51 461.92 658.152 463.091 651.394 463.097C643.587 463.103 636.055 464.46 628.296 464.368C625.756 464.337 623.043 464.057 620.541 464.598C616.972 465.37 613.589 467.884 610.49 469.719C601.458 475.07 592.684 480.922 583.777 486.444C576.771 490.787 570.076 496.758 562.672 500.326C558.581 502.298 554.272 501.002 549.956 501.773C545.358 502.597 540.506 502.265 536.391 504.404C534.007 505.644 532.484 507.061 529.472 506.694C523.955 506.022 519.92 500.781 514.524 499.187C504.675 496.278 493.449 500.164 483.968 496.678C478.448 494.648 473.987 490.557 469.351 487.085C462.707 482.113 455.467 478.058 447.465 475.771C440.664 473.828 433.541 473.056 426.919 470.508C420.832 468.166 415.078 465.149 409.351 462.068C404.366 459.386 399.182 458.591 394.048 456.44C392.097 455.622 390.314 454.442 388.352 453.624C384.823 452.153 381.073 451.514 377.504 450.129C364.691 445.16 354.848 435.674 343.546 428.324C339.167 425.476 335.734 422.308 332.545 418.232C330.903 416.134 328.935 412.791 326.468 412C325.756 419.311 316.714 425.379 310.845 428.307C298.985 434.222 286.822 439.606 274.747 445.074C259.124 452.151 244.33 462.486 226.991 465.027C219.169 466.173 213.299 465.305 205.733 463.886C196.113 462.083 186.396 461.463 176.673 462.703C169.798 463.581 163.047 464.7 156.114 463.88C148.15 462.938 140.996 459.891 133.189 458.581C125.724 457.329 118.058 458.403 110.666 459.768C105.664 460.691 100.678 462.129 95.757 463.431C90.3234 464.867 82.8296 467.891 76.9467 466.885C72.7093 466.161 69.8754 463.135 66.2255 461.217C62.4872 459.253 58.8968 459.011 54.7458 459.157C47.2597 459.422 39.9752 461.217 32.4411 460.48C22.8507 459.541 13.3026 452.205 6.16978 446.395C-9.97742 433.245 -27.7105 425.219 -47.1793 418.501C-50.9579 417.197 -57.0059 413.713 -60.7057 416.892C-62.8581 418.741 -65.4136 428.537 -65.5038 428.835C-69.7182 442.557 -73.3624 456.467 -77.4117 470.241C-83.5864 491.24 -90.0453 512.253 -95.0315 533.58C-98.0977 546.698 -101.168 561.501 -91.132 572.589C-86.7832 577.393 -80.0363 580.292 -74.1937 582.275C-65.3617 585.274 -55.8424 587.592 -46.8376 589.711C-15.6549 597.052 15.7755 603.597 47.3845 608.798C85.2795 615.032 123.301 621.101 161.288 626.739C200.808 632.604 241.285 637.604 281.208 639.685C363.941 643.996 447.236 638.954 529.579 630.805C581.02 625.715 632.042 617.208 683.905 619.514C696.481 620.072 709.02 621.169 721.589 621.841C736.031 622.614 747.969 618.195 760.065 610.426C770.576 603.676 779.425 594.653 786.327 584.26C791.056 577.139 793.817 569.459 796.928 561.57C798.823 556.766 802.144 552.279 803.394 547.295C804.769 541.815 806.391 536.545 806.268 530.842C806.084 522.488 802.912 510.166 794.307 506.12Z" fill="url(#paint0_linear_11_127)"/>
<path d="M-94.1005 567.53C-95.7253 565.615 -97.0066 563.596 -98 561.498V1140.1H1443.58V752.098L1328.58 719.098L1126.58 684.598L1006.58 629.627C976.415 622.381 906.681 607.89 869.081 607.89C831.481 607.89 809.56 551.297 803.3 523C803.423 529.083 801.8 534.704 800.426 540.549C799.176 545.866 795.854 550.652 793.959 555.776C790.849 564.191 788.088 572.383 783.359 579.979C776.456 591.065 767.607 600.689 757.097 607.89C745.001 616.176 733.062 620.89 718.62 620.065C706.052 619.348 693.512 618.179 680.936 617.583C629.073 615.123 578.051 624.198 526.611 629.627C444.268 638.319 360.972 643.697 278.239 639.099C238.317 636.879 197.839 631.546 158.32 625.289C120.333 619.276 82.3111 612.803 44.416 606.153C12.8071 600.605 -18.6234 593.623 -49.8061 585.794C-58.8109 583.533 -68.3302 581.061 -77.1622 577.862C-83.0048 575.746 -89.7517 572.654 -94.1005 567.53Z" fill="url(#paint1_linear_11_127)"/>
<path d="M794.307 506.12C793.608 505.792 792.873 505.517 792.101 505.304C787.744 504.104 781.305 505.552 776.737 505.42C767.133 505.141 758.894 498.728 749.726 496.338C743.056 494.598 736.135 493.832 729.557 491.791C724.459 490.209 719.663 487.754 714.99 485.198C707.198 480.94 700.45 474.69 691.043 476.143C686.94 476.777 682.964 477.981 678.89 476.56C674.746 475.114 673.733 471.96 671.525 468.396C667.51 461.92 658.152 463.091 651.394 463.097C643.587 463.103 636.055 464.46 628.296 464.368C625.756 464.337 623.043 464.057 620.541 464.598C616.972 465.37 613.589 467.884 610.49 469.719C601.458 475.07 592.684 480.922 583.777 486.444C576.771 490.787 570.076 496.758 562.672 500.326C558.581 502.298 554.272 501.002 549.956 501.773C545.358 502.597 540.506 502.265 536.391 504.404C534.007 505.644 532.484 507.061 529.472 506.694C523.955 506.022 519.92 500.781 514.524 499.187C504.675 496.278 493.449 500.164 483.968 496.678C478.448 494.648 473.987 490.557 469.351 487.085C462.707 482.113 455.467 478.058 447.465 475.771C440.664 473.828 433.541 473.056 426.919 470.508C420.832 468.166 415.078 465.149 409.351 462.068C404.366 459.386 399.182 458.591 394.048 456.44C392.097 455.622 390.314 454.442 388.352 453.624C384.823 452.153 381.073 451.514 377.504 450.129C364.691 445.16 354.848 435.674 343.546 428.324C339.167 425.476 335.734 422.308 332.545 418.232C330.903 416.134 328.935 412.791 326.468 412C325.756 419.311 316.714 425.379 310.845 428.307C298.985 434.222 286.822 439.606 274.747 445.074C259.124 452.151 244.33 462.486 226.991 465.027C219.169 466.173 213.299 465.305 205.733 463.886C196.113 462.083 186.396 461.463 176.673 462.703C169.798 463.581 163.047 464.7 156.114 463.88C148.15 462.938 140.996 459.891 133.189 458.581C125.724 457.329 118.058 458.403 110.666 459.768C105.664 460.691 100.678 462.129 95.757 463.431C90.3234 464.867 82.8296 467.891 76.9467 466.885C72.7093 466.161 69.8754 463.135 66.2254 461.217C62.4872 459.253 58.8968 459.011 54.7458 459.157C47.2597 459.422 39.9752 461.217 32.4411 460.48C22.8507 459.541 13.3026 452.205 6.16978 446.395C-9.97742 433.245 -27.7105 425.219 -47.1793 418.501C-50.9579 417.197 -57.0059 413.713 -60.7057 416.892C-62.8581 418.741 -65.4136 428.537 -65.5038 428.835C-69.7182 442.557 -73.3624 456.467 -77.4117 470.241C-83.5864 491.24 -90.0453 512.253 -95.0315 533.58C-98.0977 546.698 -101.168 561.501 -91.132 572.589C-86.7832 577.393 -80.0363 580.292 -74.1937 582.275C-65.3617 585.274 -55.8424 587.592 -46.8376 589.711C-15.6549 597.052 15.7755 603.597 47.3845 608.798C85.2795 615.032 123.301 621.101 161.288 626.739C200.808 632.604 241.285 637.604 281.208 639.685C363.941 643.996 447.236 638.954 529.579 630.805C581.02 625.715 632.042 617.208 683.905 619.514C696.481 620.072 709.02 621.169 721.589 621.841C736.031 622.614 747.969 618.195 760.065 610.426C770.576 603.676 779.425 594.653 786.327 584.26C791.056 577.139 793.817 569.459 796.928 561.57C798.823 556.766 802.144 552.279 803.394 547.295C804.769 541.815 806.391 536.545 806.268 530.842C806.084 522.488 802.912 510.166 794.307 506.12Z" fill="url(#paint2_linear_11_127)"/>
</g>
<defs>
<linearGradient id="paint0_linear_11_127" x1="354.135" y1="411.999" x2="354" y2="615" gradientUnits="userSpaceOnUse">
<stop offset="0.381" stop-color="#F5BA9D"/>
<stop offset="1" stop-color="#5D6783"/>
</linearGradient>
<linearGradient id="paint1_linear_11_127" x1="341.5" y1="679" x2="346.5" y2="1018" gradientUnits="userSpaceOnUse">
<stop stop-color="#5D6783"/>
<stop offset="1" stop-color="#F5BA9D"/>
</linearGradient>
<linearGradient id="paint2_linear_11_127" x1="354.135" y1="411.999" x2="354.135" y2="525.926" gradientUnits="userSpaceOnUse">
<stop stop-color="#5D6783"/>
<stop offset="1" stop-color="#F5BA9D"/>
</linearGradient>
<clipPath id="clip0_11_127">
<rect width="1440" height="1024" fill="white"/>
</clipPath>
</defs>
</svg>
