<svg width="1440" height="1024" viewBox="0 0 1440 1024" fill="none" xmlns="http://www.w3.org/2000/svg">
<g clip-path="url(#clip0_11_134)">
<path d="M-20.3243 352.176C-18.3313 351.279 -16.275 350.623 -14.2897 349.601C-12.0683 348.461 -10.3518 346.619 -8.07465 345.498C-1.83081 342.424 5.31351 342.334 11.949 340.6C20.7253 338.31 29.4249 339.039 38.1705 337.236C43.7557 336.084 48.1026 332.694 52.5033 329.314C58.4649 324.737 65.2463 321.222 70.9929 316.406C75.6489 312.505 79.103 309.316 85.341 308.747C90.9513 308.237 96.7881 305.821 100.985 302.108C105.244 298.343 110.098 293.8 115.401 291.65C121.27 289.271 126.068 289.467 131.458 285.659C139.109 280.253 146.293 274.94 154.39 270.155C159.801 266.959 164.359 262.902 170.073 260.168C175.737 257.457 180.926 253.292 186.268 249.955C192.984 245.76 199.616 241.974 205.875 237.089C217.844 227.75 231.559 220.088 244.417 212.081C250.35 208.387 255.9 203.992 262.325 201.128C268.373 198.432 274.169 198.011 279.524 193.655C283.831 190.151 288.179 186.722 292.507 183.241C294.544 181.601 297.094 177.222 300.375 178.12C301.627 178.464 302.698 179.789 303.601 180.678C307.539 184.56 311.413 188.65 315.332 192.609C320.355 197.681 325.76 202.99 332.255 206.145C337.6 208.74 343.435 210.591 348.986 212.713C356.988 215.77 362.088 221.341 368.341 226.815C375.276 232.888 383.21 237.999 390.608 243.487C396.663 247.979 401.344 252.705 405.589 258.837C409.091 263.898 412.469 267.563 418.008 270.321C421.967 272.29 425.398 275.026 429.62 276.449C435.543 278.448 438.285 283.275 443.427 286.491C449.577 290.338 456.393 287.343 462.97 286.94C465.505 286.785 468.371 287.543 470.839 286.817C473.335 286.084 477.357 282.868 479.225 280.994C482.572 277.636 483.322 273.894 488.099 277.019C491.452 279.212 493.713 279.878 497.665 280.861C504.375 282.532 510.304 285.26 517.264 286.364C523.535 287.359 529.664 288.927 535.93 289.947C541.877 290.914 547.938 289.997 553.786 291.039C558.135 291.815 562.999 293.831 566.648 296.308C572.768 300.461 575.269 298.537 582.009 296.865C585.66 295.96 587.36 296.502 590.987 297.141C594.65 297.786 598.547 297.658 602.299 298.245C604.739 298.627 606.775 298.395 609.155 298.489C612.51 298.623 615.614 299.714 618.974 299.871C624.992 300.152 631.441 300.274 637.429 299.52C651.467 297.75 665.78 298.525 679.927 298.525C685.506 298.525 691.349 299.025 696.917 298.562C700.213 298.287 703.23 297.216 706.089 299.234C708.03 300.603 710.643 304.383 712.357 306.148C717.178 311.111 723.438 314.899 729.017 318.975C734.516 322.992 740.261 327.226 746.353 330.296C753.453 333.874 761.605 336.693 769.07 339.548C778.252 343.058 786.264 341.89 795.482 339.807C798.525 339.12 800.295 338.246 803.356 338.21C805.46 338.185 807.564 338.206 809.669 338.206C818.683 338.206 828.295 337.282 837.18 338.786C841.633 339.538 845.82 342.228 850.363 342.203C857.795 342.163 865.356 338.565 871.977 335.781C876.231 333.992 880.64 333.024 884.975 331.501C888.212 330.365 891.37 328.761 894.673 327.834C897.946 326.914 901.326 326.866 904.576 325.928C907.199 325.169 909.568 323.831 912.214 323.122C916.858 321.88 920.08 319.574 924.264 317.243C927.768 315.293 934.494 309.863 938.835 311.566C941.221 312.503 943.46 315.94 945.451 317.61C956.883 327.202 972.809 332.219 986.495 337.115C1006.72 344.348 1028.46 349.188 1047.34 359.647C1057.5 365.274 1065.28 371.366 1069.12 382.374C1073.01 393.538 1079.97 405.492 1079.79 417.594C1079.68 424.608 1076.92 431.04 1074.01 437.259C1066.21 453.959 1051.99 467.967 1038.78 480.499C1018.65 499.607 992.796 516.501 966.602 525.882C933.002 537.915 897.566 543.617 861.979 545.13C833.529 546.34 804.984 545.791 776.53 546.872C726.544 548.769 676.862 554.07 627.178 559.553C454.119 578.653 278.601 591.711 105.484 565.978C85.7596 563.046 65.926 559.607 46.7202 554.062C21.4319 546.76 -3.93897 533.894 -24.8939 517.995C-36.2814 509.353 -46.49 499.148 -51.9063 485.531C-57.2074 472.199 -59.2177 458.112 -58.9815 443.787C-58.7262 428.281 -57.9908 412.051 -55.0455 396.795C-53.1639 387.049 -46.4977 378.839 -39.3054 372.484C-36.6116 370.105 -33.818 367.839 -31.1684 365.409C-30.0817 364.412 -27.3092 362.498 -26.8081 360.941C-26.5105 360.019 -27.1095 359.268 -26.9483 358.429C-26.5201 356.179 -25.1089 355.008 -23.2139 353.737C-22.2731 353.115 -21.3054 352.616 -20.3243 352.176Z" fill="url(#paint0_linear_11_134)"/>
<path d="M1075.17 389C1074.16 394.146 1072.14 399.029 1070.06 403.795C1062.26 421.608 1048.04 436.551 1034.83 449.918C1014.7 470.3 988.842 488.32 962.647 498.327C929.047 511.161 893.612 517.244 858.025 518.858C829.574 520.148 801.029 519.562 772.575 520.715C722.59 522.739 672.908 528.393 623.224 534.242C450.165 554.616 274.646 568.544 101.529 541.095C81.8051 537.968 61.9715 534.3 42.7658 528.385C17.4774 520.596 -7.89344 506.873 -28.8483 489.913C-40.2358 480.695 -50.4445 469.81 -55.8608 455.286C-57.0759 452.026 -58.1181 448.724 -59 445.386V1023.89H1502.06V558.395L1415.06 541.095H1249.56C1229.06 536.858 1175.66 522.373 1126.06 498.327C1079.79 475.894 1072.72 419.583 1075.17 389Z" fill="url(#paint1_linear_11_134)"/>
</g>
<defs>
<linearGradient id="paint0_linear_11_134" x1="510.398" y1="145.569" x2="510.398" y2="489.383" gradientUnits="userSpaceOnUse">
<stop stop-color="#5D6783"/>
<stop offset="1" stop-color="#F5BA9D"/>
</linearGradient>
<linearGradient id="paint1_linear_11_134" x1="506.443" y1="92.6584" x2="506.443" y2="459.393" gradientUnits="userSpaceOnUse">
<stop stop-color="#F5BA9D"/>
<stop offset="1" stop-color="#F5BA9D"/>
</linearGradient>
<clipPath id="clip0_11_134">
<rect width="1440" height="1024" fill="white"/>
</clipPath>
</defs>
</svg>
