<svg width="1440" height="1024" viewBox="0 0 1440 1024" fill="none" xmlns="http://www.w3.org/2000/svg">
<g clip-path="url(#clip0_10_94)">
<path d="M674.304 531.694C682.906 529.781 691.446 532.283 699.905 534.011C706.303 535.319 712.435 537.506 718.856 538.713C724.829 539.836 730.946 540.633 737.034 540.66C741.903 540.681 746.79 539.111 751.634 539.583C755.005 539.911 757.795 541.71 761.086 542.294C763.845 542.784 767.211 543.108 769.97 543.081C773.856 543.043 775.976 541.175 779.366 539.742C781.901 538.673 785.078 538.083 787.841 537.813C790.195 537.582 792.181 538.179 794.231 539.228C796.825 540.555 797.695 540.762 800.646 539.664C809.14 536.503 818.773 532.936 826.117 527.462C827.981 528.8 829.638 530.267 831.656 531.386C833.981 532.675 836.389 533.456 838.911 534.266C843.418 535.712 847.609 537.64 851.868 539.698C859.784 543.525 868.533 543.949 876.39 547.743C881.601 550.258 886.556 553.238 891.654 555.966C897.02 558.837 902.346 560.265 908.343 561.262C918.332 562.921 928.263 563.498 938.03 566.413C941.474 567.44 944.836 568.857 948.136 570.28C951.848 571.881 954.918 574.54 958.604 576.13C961.21 577.253 964.253 578.34 967.056 578.797C970.105 579.294 973.206 578.728 976.266 579.02C978.816 579.264 981.258 580.147 983.833 579.897C986.945 579.598 990.213 578.077 993.066 576.854C998.993 574.314 1006.02 569.758 1012.63 570.737C1015.01 571.09 1017.2 571.311 1019.32 572.25C1024.5 574.548 1028.19 579.033 1033.2 581.654C1037.79 584.052 1045.08 586.492 1050.31 586.709C1056.14 586.949 1061.64 581.12 1066.05 578.023C1071.63 574.101 1077.3 570.568 1083.59 567.907C1090.16 565.13 1097.05 563.844 1103.88 561.926C1115.95 558.537 1127.16 553.092 1139.03 549.173C1152.93 544.586 1167.22 541.313 1181.1 536.728C1196.1 531.77 1207.29 519.421 1219.58 509.992C1230.24 501.815 1240.53 492.791 1252.12 485.904C1253.36 485.168 1255.63 483.331 1257.04 483.07C1258.33 482.834 1258.06 483.244 1259.02 483.603C1261.18 484.408 1263 486.063 1265.03 487.129C1268.5 488.949 1272 490.769 1275.49 492.547C1285.9 497.848 1297.98 498.996 1308.75 503.539C1314.42 505.935 1320.34 507.74 1325.95 510.268C1332.38 513.164 1338.32 516.896 1344.19 520.778C1348.43 523.584 1353.03 525.694 1357.54 528.003C1362.34 530.455 1367.14 533.043 1372.69 533.07C1376.79 533.09 1380.84 531.734 1384.87 531.156C1389.39 530.507 1393.96 530.044 1398.52 529.941C1401.9 529.864 1405.18 529.778 1408.4 530.893C1411.15 531.847 1413.65 532.949 1416.63 533.022C1421.16 533.132 1425.52 531.492 1429.79 530.215C1435.72 528.443 1441.84 527.545 1447.8 525.884C1455.8 523.651 1465.71 520.558 1472.29 527.264C1476.27 531.312 1478.93 536.713 1481.43 541.745C1486.45 551.867 1491.35 562.066 1495.48 572.588C1498.6 580.512 1501.55 588.601 1503.75 596.83C1506.18 605.944 1503.43 614.138 1497.6 621.329C1491.13 629.32 1482.7 634.329 1473.93 639.45C1464.16 645.154 1454.02 650.265 1443.62 654.745C1414.15 667.436 1382.8 675.64 1351.81 683.625C1335.96 687.707 1319.98 691.81 1303.89 694.834C1283.27 698.709 1262.38 700.761 1241.55 702.927C1210.05 706.202 1178.57 709.516 1147.03 712.379C1074.29 718.982 1001.72 727.035 928.704 729.788C895.972 731.022 863.059 732.685 830.396 729.634C800.696 726.86 770.959 721.248 744.292 707.435C714.129 691.81 684.025 671.777 665.791 642.286C656.068 626.559 654.472 609.173 654.015 591.1C653.797 582.437 655.937 574.245 658.36 565.987C660.71 557.978 662.467 549.763 665.593 542C666.484 539.788 667.521 537.573 668.506 535.422C668.709 534.979 668.527 534.499 668.859 534.071C669.965 532.646 672.373 532.147 674.02 531.761C674.114 531.736 674.21 531.715 674.304 531.694Z" fill="url(#paint0_linear_10_94)"/>
<path d="M1505.47 584.036C1504.36 588.362 1502.22 592.435 1499.33 596.244C1492.85 604.767 1484.43 610.111 1475.66 615.573C1465.89 621.657 1455.75 627.109 1445.35 631.887C1415.88 645.424 1384.52 654.175 1353.53 662.693C1337.69 667.047 1321.71 671.424 1305.62 674.649C1285 678.782 1264.11 680.971 1243.27 683.282C1211.77 686.776 1180.29 690.31 1148.75 693.364C1076.02 700.407 1003.45 708.996 930.431 711.933C897.699 713.25 864.786 715.024 832.123 711.769C802.422 708.81 772.685 702.824 746.018 688.09C715.855 671.424 685.752 650.055 667.517 618.598C657.794 601.822 656.199 583.278 655.742 564C637.995 603.015 568.9 687.189 434.5 711.769C300.1 736.349 136.833 709.741 72 693.364L1.5 674.649L-43 662.693V1024.99H1505.47V584.036Z" fill="url(#paint1_linear_10_94)"/>
</g>
<defs>
<linearGradient id="paint0_linear_10_94" x1="1079.31" y1="571.261" x2="1079.31" y2="646.24" gradientUnits="userSpaceOnUse">
<stop stop-color="#2F4C6D"/>
<stop offset="1" stop-color="#3C5473"/>
</linearGradient>
<linearGradient id="paint1_linear_10_94" x1="1081.04" y1="542.838" x2="1081.04" y2="622.815" gradientUnits="userSpaceOnUse">
<stop stop-color="#2F4C6D"/>
<stop offset="1" stop-color="#3C5473"/>
</linearGradient>
<clipPath id="clip0_10_94">
<rect width="1440" height="1024" fill="white"/>
</clipPath>
</defs>
</svg>
