<svg width="1800" height="1280" viewBox="0 0 1800 1280" fill="none" xmlns="http://www.w3.org/2000/svg">
<path d="M415.065 388.333V299.893H449.265V330.973H466.305V299.893H500.505V388.333H466.305V354.493H449.265V388.333H415.065ZM507.768 388.333L527.328 299.893H586.488L605.928 388.333H570.168L568.128 375.253H545.568L543.528 388.333H507.768ZM549.048 353.533H564.648L559.368 320.173H554.328L549.048 353.533ZM625.229 388.333L611.909 376.933V311.293L625.229 299.893H683.549L696.869 311.293V336.973H661.829V318.253H646.109V369.973H662.069V350.893H697.229V376.933L683.909 388.333H625.229ZM707.916 388.333V299.893H742.116V331.213L762.396 299.893H801.276L771.276 340.693L800.436 388.333H762.036L742.116 350.533V388.333H707.916Z" fill="#003EFC"/>
<path d="M920.035 512V486.24H806.075V437.8L917.235 305.64H999.555V437.8H1022.23V486.24H999.555V512H920.035ZM879.715 437.8H920.035V384.04L879.715 437.8ZM1046.99 512V459.64H1108.03V512H1046.99ZM1169.8 512L1138.72 485.4V332.24L1169.8 305.64H1307.56L1338.64 332.24V485.4L1307.56 512H1169.8ZM1218.52 469.16H1258.84V348.48H1218.52V469.16Z" fill="#003EFC"/>
<path d="M448.844 506.333L431.084 491.133V449.693H476.684V481.853H495.404V388.413H540.844V491.133L523.084 506.333H448.844ZM556.791 506.333V388.413H598.071L623.831 446.013V388.413H664.791V506.333H623.831L597.911 446.173L597.751 506.333H556.791ZM698.614 506.333L680.854 491.133V388.413H726.454V481.853H747.734V388.413H793.334V491.133L775.574 506.333H698.614Z" fill="#003EFC"/>
<path d="M423.815 400.333V311.893H458.015V342.973H475.055V311.893H509.255V400.333H475.055V366.493H458.015V400.333H423.815ZM516.518 400.333L536.078 311.893H595.238L614.678 400.333H578.918L576.878 387.253H554.318L552.278 400.333H516.518ZM557.798 365.533H573.398L568.118 332.173H563.078L557.798 365.533ZM633.979 400.333L620.659 388.933V323.293L633.979 311.893H692.299L705.619 323.293V348.973H670.579V330.253H654.859V381.973H670.819V362.893H705.979V388.933L692.659 400.333H633.979ZM716.667 400.333V311.893H750.867V343.213L771.147 311.893H810.027L780.027 352.693L809.187 400.333H770.787L750.867 362.533V400.333H716.667Z" fill="#00FDFF"/>
<path d="M929.172 524V498.24H815.212V449.8L926.372 317.64H1008.69V449.8H1031.37V498.24H1008.69V524H929.172ZM888.852 449.8H929.172V396.04L888.852 449.8ZM1056.13 524V471.64H1117.17V524H1056.13ZM1178.94 524L1147.86 497.4V344.24L1178.94 317.64H1316.7L1347.78 344.24V497.4L1316.7 524H1178.94ZM1227.66 481.16H1267.98V360.48H1227.66V481.16Z" fill="#00FDFF"/>
<path d="M457.594 518.333L439.834 503.133V461.693H485.434V493.853H504.154V400.413H549.594V503.133L531.834 518.333H457.594ZM565.542 518.333V400.413H606.822L632.582 458.013V400.413H673.542V518.333H632.582L606.662 458.173L606.502 518.333H565.542ZM707.364 518.333L689.604 503.133V400.413H735.204V493.853H756.484V400.413H802.084V503.133L784.324 518.333H707.364Z" fill="#00FDFF"/>
<path d="M433.816 413.667V325.227H468.016V356.307H485.056V325.227H519.256V413.667H485.056V379.827H468.016V413.667H433.816ZM526.519 413.667L546.079 325.227H605.239L624.679 413.667H588.919L586.879 400.587H564.319L562.279 413.667H526.519ZM567.799 378.867H583.399L578.119 345.507H573.079L567.799 378.867ZM643.98 413.667L630.66 402.267V336.627L643.98 325.227H702.3L715.62 336.627V362.307H680.58V343.587H664.86V395.307H680.82V376.227H715.98V402.267L702.66 413.667H643.98ZM726.667 413.667V325.227H760.867V356.547L781.147 325.227H820.027L790.027 366.027L819.187 413.667H780.787L760.867 375.867V413.667H726.667Z" fill="white"/>
<path d="M939.325 537.333V511.573H825.365V463.133L936.525 330.973H1018.85V463.133H1041.53V511.573H1018.85V537.333H939.325ZM899.005 463.133H939.325V409.373L899.005 463.133ZM1066.28 537.333V484.973H1127.32V537.333H1066.28ZM1189.09 537.333L1158.01 510.733V357.573L1189.09 330.973H1326.85L1357.93 357.573V510.733L1326.85 537.333H1189.09ZM1237.81 494.493H1278.13V373.813H1237.81V494.493Z" fill="white"/>
<path d="M467.595 531.667L449.835 516.467V475.027H495.435V507.187H514.155V413.747H559.595V516.467L541.835 531.667H467.595ZM575.542 531.667V413.747H616.822L642.582 471.347V413.747H683.542V531.667H642.582L616.662 471.507L616.502 531.667H575.542ZM717.365 531.667L699.605 516.467V413.747H745.205V507.187H766.485V413.747H812.085V516.467L794.325 531.667H717.365Z" fill="white"/>
</svg>
