<svg width="360" height="698" viewBox="0 0 360 698" fill="none" xmlns="http://www.w3.org/2000/svg">
<path fill-rule="evenodd" clip-rule="evenodd" d="M0 606.683V698H360V576.435V363.111C359.194 362.685 358.419 362.166 357.643 361.646L357.643 361.646C356.478 360.866 355.309 360.083 354.023 359.603C353.694 359.48 353.508 359.351 353.355 359.243C353.062 359.038 352.885 358.915 352.041 359.07C351.03 359.256 349.583 360.248 348.387 361.067L348.387 361.067C347.909 361.394 347.472 361.694 347.119 361.904C338.605 366.964 330.792 373.179 323.017 379.364L323.016 379.364L323.013 379.366C320.208 381.597 317.408 383.824 314.582 385.992C311.311 388.501 308.117 391.218 304.909 393.946L304.908 393.947C296.062 401.471 287.105 409.09 276.1 412.728C269.153 415.023 262.101 416.99 255.047 418.957C248.009 420.92 240.97 422.883 234.03 425.173C228.955 426.849 224.001 428.803 219.048 430.756L219.048 430.756L219.048 430.756C212.416 433.372 205.789 435.986 198.883 437.926C196.891 438.485 194.894 438.991 192.901 439.495L192.9 439.495L192.9 439.495C188.059 440.721 183.243 441.94 178.592 443.907C172.301 446.568 166.633 450.101 161.051 454.023C160.049 454.727 158.99 455.572 157.884 456.455L157.884 456.456C154.124 459.457 149.817 462.895 145.313 462.709C140.079 462.492 132.791 460.052 128.204 457.654C125.879 456.439 123.838 454.822 121.801 453.209C119.446 451.344 117.096 449.482 114.318 448.25C112.47 447.429 110.562 447.157 108.516 446.865C108.222 446.824 107.925 446.781 107.625 446.737C102.457 445.971 97.0343 448.591 92.0812 450.985L92.0808 450.985C90.7011 451.651 89.3577 452.301 88.0664 452.854C87.8013 452.968 87.5326 453.084 87.2608 453.201L87.2607 453.201C84.6072 454.349 81.6562 455.625 78.833 455.897C77.1928 456.056 75.6064 455.755 74.0117 455.453C73.1031 455.281 72.1918 455.108 71.2663 455.02C69.8996 454.889 68.5249 454.93 67.1503 454.971C65.4468 455.022 63.7435 455.072 62.0561 454.797C59.2529 454.34 56.2097 453.253 53.6042 452.13C51.7637 451.336 50.0769 450.276 48.3871 449.214L48.3869 449.214L48.3868 449.214C46.6922 448.149 44.9947 447.082 43.1364 446.28C39.8359 444.857 36.474 443.44 33.0295 442.413C26.3169 440.41 19.5272 439.511 12.694 438.605C9.58475 438.194 6.46655 437.78 3.3425 437.262C2.20587 437.073 1.09332 436.868 0 436.642V606.683Z" fill="url(#paint0_linear_27_278)"/>
<defs>
<linearGradient id="paint0_linear_27_278" x1="174.313" y1="447.261" x2="180" y2="845.5" gradientUnits="userSpaceOnUse">
<stop stop-color="#124162"/>
<stop offset="1" stop-color="#012D52"/>
</linearGradient>
</defs>
</svg>
