<svg width="360" height="698" viewBox="0 0 360 698" fill="none" xmlns="http://www.w3.org/2000/svg">
<path fill-rule="evenodd" clip-rule="evenodd" d="M2.38736e-06 462.635L0 363.64C3.60512 363.584 7.22333 363.299 10.8558 362.724C15.626 361.97 21.2791 360.358 25.3888 357.683C26.3544 357.054 27.2156 356.262 28.0757 355.47C29.0944 354.533 30.1115 353.597 31.2988 352.937C33.2045 351.876 35.4762 352.548 37.6024 353.176C38.304 353.384 38.9898 353.586 39.6413 353.721C40.2512 353.846 40.8993 353.892 41.5471 353.938C42.3536 353.995 43.1597 354.052 43.8908 354.263C44.5528 354.455 45.3213 354.907 46.0094 355.312L46.0096 355.312C46.2877 355.476 46.5527 355.632 46.7922 355.76C46.9414 355.84 47.0922 355.948 47.2475 356.06C47.6129 356.323 48.0029 356.604 48.4535 356.568C48.7267 356.546 48.8398 356.4 48.9503 356.256C49.0487 356.129 49.1451 356.004 49.3505 355.972C49.7343 355.915 50.1505 355.948 50.5674 355.982C51.0506 356.021 51.5347 356.061 51.9704 355.958C52.3713 355.864 52.784 355.708 53.2043 355.548L53.2048 355.548C53.5184 355.429 53.8363 355.308 54.1567 355.211C54.8088 355.012 55.5626 354.554 56.2707 354.124C56.5845 353.933 56.8894 353.748 57.1724 353.593C57.5253 353.4 57.8789 353.205 58.2334 353.009C60.1468 351.954 62.0871 350.883 64.0919 350.075C65.4851 349.515 66.6884 348.72 67.905 347.916C68.4677 347.545 69.0334 347.171 69.622 346.818C72.8784 344.865 75.9244 342.071 78.8239 339.412L78.8242 339.411C79.4405 338.846 80.0502 338.287 80.6539 337.743C82.7472 335.858 85.0458 334.188 87.3445 332.519L87.3449 332.519C89.7396 330.779 92.1345 329.04 94.2978 327.056C94.5771 326.8 94.8529 326.539 95.1281 326.28L95.1306 326.277L95.1308 326.277C96.4644 325.019 97.7819 323.775 99.3995 323.078C100.318 322.683 101.56 322.222 102.492 322.317C103.099 322.379 103.747 322.601 104.388 322.82L104.388 322.82C104.841 322.975 105.291 323.128 105.718 323.223C107.818 323.686 109.864 323.735 112.035 323.669C114.528 323.595 116.069 321.147 117.411 319.015L117.411 319.015L117.411 319.014C117.688 318.574 117.957 318.146 118.224 317.757C119.57 315.792 122.019 316.368 124.278 316.899C124.928 317.052 125.563 317.201 126.151 317.285C126.517 317.337 126.875 317.384 127.226 317.431C129.168 317.686 130.912 317.916 132.715 318.83C133.985 319.474 134.914 320.201 135.972 321.028C136.106 321.132 136.242 321.239 136.381 321.347C136.535 321.467 136.697 321.595 136.865 321.729C138.117 322.727 139.716 324 141.258 323.981C141.614 323.977 141.957 323.865 142.3 323.754C142.574 323.665 142.849 323.575 143.13 323.541C143.769 323.463 144.415 323.5 145.062 323.538H145.062H145.062C145.592 323.568 146.122 323.599 146.649 323.567C149.136 323.413 151.574 322.693 153.914 321.87C156.172 321.077 157.87 319.845 159.74 318.489L159.745 318.485C159.918 318.36 160.093 318.233 160.269 318.106C161.733 317.05 163.213 316.111 164.688 315.175L164.688 315.174C166.72 313.885 168.741 312.602 170.696 311.03C171.564 310.332 172.476 309.669 173.391 309.004L173.391 309.004C175.229 307.668 177.077 306.324 178.601 304.676C179.408 303.803 180.297 303.002 181.185 302.201C182.716 300.822 184.246 299.443 185.356 297.698C188.597 292.602 193.351 288.546 198.045 284.541C200.045 282.835 202.034 281.138 203.89 279.374C205.742 277.615 207.45 275.713 209.157 273.811L209.157 273.81C210.394 272.432 211.63 271.055 212.921 269.733C213.881 268.749 214.893 267.819 215.903 266.889L215.904 266.889C217.102 265.787 218.298 264.686 219.407 263.5C221.851 260.882 224.537 258.351 227.306 256.044C228.33 255.19 229.263 254.696 230.243 254.176C230.881 253.839 231.538 253.491 232.253 253.027C233.332 252.327 234.363 251.422 235.394 250.518L235.395 250.518C236.164 249.844 236.933 249.17 237.72 248.581C239.935 246.928 241.701 244.957 243.468 242.986C244.672 241.643 245.875 240.301 247.221 239.058C247.877 238.452 248.594 238.006 249.302 237.565C250.192 237.012 251.069 236.466 251.797 235.621C252.398 234.923 252.992 234.22 253.586 233.517L253.59 233.513L253.591 233.512C254.938 231.918 256.286 230.322 257.731 228.776C258.878 227.547 260.13 226.365 261.386 225.181L261.386 225.181C263.29 223.384 265.203 221.58 266.768 219.591C269.938 215.563 272.87 211.593 275.496 207.248C277.954 203.184 280.721 198.851 283.454 195C284.8 195.229 286.641 197.634 287.937 199.328L287.937 199.328L287.938 199.329C288.352 199.87 288.71 200.338 288.979 200.639C289.214 200.903 289.417 201.224 289.621 201.546C289.874 201.946 290.128 202.347 290.443 202.636C290.795 202.958 291.166 203.135 291.533 203.311C291.987 203.527 292.435 203.741 292.836 204.223C293.357 204.849 293.765 205.623 294.174 206.397L294.174 206.397L294.174 206.397C294.636 207.272 295.097 208.146 295.721 208.809C297.372 210.56 299.184 208.791 300.687 207.322C301.038 206.978 301.373 206.652 301.685 206.39C302.622 205.604 303.542 204.797 304.462 203.991L304.463 203.99C305.418 203.153 306.372 202.316 307.347 201.501C307.66 201.24 307.945 200.958 308.229 200.678L308.23 200.677L308.23 200.677C308.669 200.244 309.106 199.812 309.638 199.462C309.922 199.274 310.206 199.238 310.482 199.203C310.887 199.151 311.274 199.102 311.621 198.582C315.105 199.951 317.037 202.603 319.043 205.355C320.166 206.897 321.313 208.47 322.767 209.867C323.404 210.479 324.033 211.061 324.65 211.631C327.078 213.878 329.315 215.948 331.122 218.98C332.902 221.967 334.61 224.996 336.318 228.025L336.318 228.026C336.914 229.083 337.51 230.14 338.109 231.195C338.442 231.782 338.771 232.375 339.1 232.968C340.031 234.646 340.967 236.333 342.02 237.924C342.017 237.92 342.104 237.983 342.223 238.07C342.48 238.258 342.888 238.555 342.874 238.523C343.295 239.492 343.503 240.791 343.704 242.044L343.704 242.044C343.817 242.752 343.928 243.446 344.074 244.056C345.238 248.935 347.563 254.323 349.839 258.751C350.249 259.55 350.656 260.385 351.069 261.233L351.07 261.234C352.328 263.817 353.644 266.52 355.308 268.688C356.047 269.651 356.939 270.473 357.832 271.295C358.586 271.99 359.339 272.684 360 273.463V484.289V698H0L2.38736e-06 462.635Z" fill="url(#paint0_linear_27_292)"/>
<defs>
<linearGradient id="paint0_linear_27_292" x1="95.5" y1="667" x2="102" y2="254.107" gradientUnits="userSpaceOnUse">
<stop stop-color="#5D6783"/>
<stop offset="0.941" stop-color="#6A6C84"/>
</linearGradient>
</defs>
</svg>
