<svg width="360" height="698" viewBox="0 0 360 698" fill="none" xmlns="http://www.w3.org/2000/svg">
<g clip-path="url(#clip0_27_271)">
<path fill-rule="evenodd" clip-rule="evenodd" d="M3.92966e-06 592.012L0 450.875C0.557007 450.736 1.06444 450.674 1.85138 450.846C2.51719 450.991 2.94127 451.387 3.36692 451.785L3.36693 451.785C3.59033 451.994 3.81416 452.203 4.07358 452.376C5.6718 453.444 7.69994 454.073 9.66002 454.682C10.1785 454.842 10.6923 455.002 11.1921 455.168L11.4741 455.261C14.116 456.139 16.383 456.892 19.256 456.915C23.9501 456.951 27.6051 456.699 32.0187 455.186C33.4849 454.684 34.9612 454.225 36.4376 453.767L36.4383 453.767C38.1859 453.225 39.9337 452.683 41.6647 452.066C42.255 451.856 42.8752 451.621 43.5147 451.377L43.5147 451.377C45.7439 450.53 48.2075 449.594 50.4575 449.34C51.4905 449.223 52.6596 449.266 53.7068 449.306C55.0678 449.359 55.1822 449.461 55.6707 449.9L55.6707 449.9C55.8439 450.056 56.0641 450.253 56.4034 450.506C57.393 451.242 58.558 451.914 59.7044 452.575L59.7045 452.575C60.2606 452.896 60.8124 453.214 61.3377 453.536C63.2953 454.735 64.9042 456.293 66.515 457.854C67.6332 458.937 68.7524 460.021 69.9897 460.986C75.0517 464.934 79.7572 469.174 84.4665 473.416L84.467 473.417C87.8299 476.446 91.1948 479.478 94.6927 482.406C99.3885 486.337 105.403 489.359 111.1 492.222L111.103 492.224C111.766 492.557 112.424 492.888 113.076 493.217C114.573 493.975 116.122 494.64 117.673 495.306L117.673 495.306L117.675 495.307C118.307 495.578 118.939 495.849 119.567 496.127C121.128 496.816 122.697 497.3 124.273 497.786L124.273 497.787C125.33 498.113 126.391 498.44 127.456 498.831C128.806 499.328 129.957 500.068 131.11 500.809C131.967 501.359 132.825 501.911 133.766 502.363C135.951 503.413 137.897 504.388 139.917 505.65C140.561 506.053 141.237 506.337 141.91 506.62L141.91 506.62C142.705 506.954 143.498 507.288 144.237 507.815C145.341 508.602 146.383 509.115 147.466 509.649C148.123 509.972 148.795 510.303 149.505 510.707C149.78 510.864 150.057 511.018 150.334 511.172C152.13 512.172 153.914 513.165 155.081 514.73C156.134 516.141 157.032 516.94 159.028 516.808C160.255 516.728 160.668 516.448 161.313 516.011C161.584 515.828 161.895 515.618 162.325 515.382C163.381 514.804 164.526 514.308 165.678 513.81C166.712 513.363 167.752 512.913 168.736 512.4C169.877 511.804 171.079 511.282 172.282 510.759C173.98 510.022 175.679 509.284 177.21 508.337C177.313 508.273 177.416 508.21 177.517 508.147L177.526 508.142C179.112 507.157 180.535 506.274 182.515 505.91C184.786 505.494 186.3 506.16 188.106 506.954L188.107 506.954C188.502 507.128 188.911 507.308 189.346 507.484C193.809 509.294 198.231 511.104 202.686 512.931C205.148 513.94 207.781 514.648 210.412 515.356C214.549 516.469 218.678 517.579 222.123 519.855C222.628 520.188 223.126 520.55 223.627 520.915L223.627 520.916C225.327 522.152 227.07 523.42 229.271 523.706C231.383 523.98 233.859 523.427 236.186 522.907C237.317 522.655 238.412 522.411 239.413 522.272C240.315 522.148 241.29 521.968 242.29 521.782L242.291 521.782L242.291 521.782C244.419 521.388 246.668 520.972 248.607 521.025C249.587 521.052 250.515 521.195 251.442 521.337C252.666 521.525 253.89 521.713 255.23 521.635C261.56 521.268 268.086 519.491 274.125 517.846L274.706 517.687C288.405 513.958 302.285 508.572 314.287 501.639C315.9 500.707 317.454 499.717 319.007 498.728L319.008 498.728C321.183 497.343 323.356 495.959 325.684 494.739C328.75 493.131 331.63 491.38 334.206 489.195C334.413 489.019 334.661 488.789 334.939 488.531L334.94 488.531L334.94 488.53C336.055 487.496 337.64 486.026 338.922 485.893C339.969 485.783 340.286 486.038 340.795 486.445C340.998 486.608 341.231 486.795 341.552 486.992C343.77 488.355 346.861 489.052 349.512 489.65L349.513 489.651C349.838 489.724 350.157 489.796 350.467 489.867C353.653 490.601 356.83 491.407 360 492.249V594.809V698H0L3.92966e-06 592.012Z" fill="url(#paint0_linear_27_271)"/>
</g>
<defs>
<linearGradient id="paint0_linear_27_271" x1="227.997" y1="480.98" x2="224" y2="791" gradientUnits="userSpaceOnUse">
<stop stop-color="#012D52"/>
<stop offset="1" stop-color="#124162"/>
</linearGradient>
<clipPath id="clip0_27_271">
<rect width="360" height="698" fill="white"/>
</clipPath>
</defs>
</svg>
