<svg width="360" height="698" viewBox="0 0 360 698" fill="none" xmlns="http://www.w3.org/2000/svg">
<path fill-rule="evenodd" clip-rule="evenodd" d="M0 553.165C4.25563 553.377 8.53545 553.172 12.6191 552.977C13.2576 552.947 13.8913 552.917 14.5194 552.888C20.8569 552.6 27.0974 551.067 33.3285 549.537C39.1737 548.101 45.0106 546.667 50.9114 546.265C52.2114 546.177 53.4877 545.765 54.7597 545.354C55.3237 545.172 55.8869 544.99 56.451 544.836C57.546 544.539 58.6337 544.439 59.7165 544.339C60.6825 544.25 61.6446 544.161 62.6047 543.933C63.1215 543.811 63.6421 543.665 64.1657 543.518C66.1778 542.953 68.2326 542.377 70.2767 543.104C70.4365 547.419 75.151 553.194 77.285 555.535C79.8878 558.388 82.6291 561.018 85.3632 563.641C86.4672 564.7 87.5699 565.758 88.6619 566.829C92.85 570.938 96.5686 575.932 100.261 580.891L100.501 581.214C107.089 590.057 115.442 596.291 124.103 600.193C126.784 601.399 129.35 601.712 131.984 602.032C133.184 602.178 134.397 602.325 135.642 602.56C136.754 602.77 137.869 603.011 138.986 603.253C141.025 603.694 143.069 604.137 145.113 604.391C146.902 604.613 148.712 604.692 150.486 604.244C150.921 604.134 151.348 603.979 151.773 603.824C152.812 603.446 153.843 603.072 154.962 603.371C156.06 603.665 156.066 603.7 156.126 604.06C156.165 604.293 156.227 604.661 156.618 605.321C157.505 606.816 159.604 608.524 160.745 609.425C163.443 611.556 166.742 613.284 169.641 614.802L169.788 614.878C174.208 617.193 178.484 620.126 182.727 623.035L183.125 623.308C193.078 630.136 203.878 635.416 214.758 638.583C225.348 641.667 235.578 643.459 246.396 642.909C252.362 642.606 258.47 640.907 264.288 639.054C267.129 638.149 269.874 636.83 272.622 635.509C275.463 634.143 278.306 632.777 281.258 631.868C284.91 630.742 288.297 630.802 291.786 632.472C292.635 632.879 293.523 633.466 294.388 634.038C294.838 634.335 295.281 634.629 295.71 634.89C300.184 637.623 304.641 639.669 309.292 641.799C314.799 644.319 320.266 646.215 325.827 648.143C327.087 648.58 328.351 649.019 329.622 649.466C333.103 650.693 336.571 652.09 340.042 653.489C345.285 655.602 350.533 657.717 355.842 659.248C357.23 659.648 358.615 660.058 360 660.474V698H0V553.165Z" fill="url(#paint0_linear_30_311)"/>
<defs>
<linearGradient id="paint0_linear_30_311" x1="156.5" y1="663.836" x2="156.5" y2="448.055" gradientUnits="userSpaceOnUse">
<stop stop-color="#012D52"/>
<stop offset="1" stop-color="#230F38"/>
</linearGradient>
</defs>
</svg>
