<svg width="360" height="698" viewBox="0 0 360 698" fill="none" xmlns="http://www.w3.org/2000/svg">
<g clip-path="url(#clip0_27_285)">
<path fill-rule="evenodd" clip-rule="evenodd" d="M0 456.002V698H360V529.192V343.743C354.756 342.909 349.449 342.694 344.135 342.581C339.016 342.471 334.562 339.762 330.208 337.114C328.973 336.363 327.747 335.617 326.515 334.937C324.371 333.752 322.089 333.025 319.81 332.298C317.453 331.547 315.099 330.796 312.906 329.543C308.919 327.264 305.053 324.584 301.327 321.907C299.832 320.833 298.41 319.625 296.987 318.416L296.987 318.416C294.957 316.691 292.925 314.964 290.675 313.622C287.777 311.893 284.727 310.138 281.746 308.558C280.623 307.963 279.541 307.312 278.46 306.662C276.758 305.639 275.061 304.618 273.22 303.824C273.03 303.742 272.838 303.66 272.646 303.578L272.644 303.577C271.371 303.033 270.068 302.476 268.881 301.778C266.365 300.302 265.335 301.029 262.918 303.092C261.476 304.323 260.138 305.643 258.8 306.963C257.036 308.704 255.273 310.443 253.273 311.976C251.906 313.025 250.522 314.054 249.138 315.084L249.136 315.085C246.137 317.316 243.136 319.547 240.301 321.978C238.039 323.916 235.909 326.013 233.778 328.112C231.872 329.99 229.966 331.868 227.962 333.634C226.45 334.967 224.974 336.336 223.497 337.705C221.297 339.745 219.098 341.785 216.781 343.704C214.325 345.739 211.906 347.824 209.487 349.909C205.475 353.367 201.462 356.826 197.278 360.059C194.211 362.429 191.1 364.71 187.987 366.991L187.987 366.991L187.986 366.992C185.136 369.081 182.285 371.17 179.467 373.329C178.986 373.697 178.505 374.064 178.025 374.431L178.024 374.431C175.228 376.563 172.439 378.69 169.813 381.028C167.963 382.675 165.87 383.852 163.762 385.038L163.762 385.038C162.511 385.742 161.254 386.449 160.041 387.259C158.941 387.993 157.909 388.991 156.868 389.996C155.138 391.669 153.383 393.364 151.249 393.914C150.472 394.114 149.703 394.099 148.912 394.084C148.614 394.078 148.312 394.072 148.006 394.078C147.192 394.093 146.678 394.264 146.107 394.453C145.772 394.564 145.419 394.682 144.974 394.778C143.502 395.099 141.75 395.01 140.083 394.925C139.292 394.885 138.521 394.845 137.807 394.851C136.461 394.863 135.219 394.651 133.974 394.439C132.986 394.27 131.995 394.101 130.95 394.044C130.352 394.011 129.778 394 129.215 393.989H129.215C127.779 393.961 126.414 393.935 124.903 393.55C121.396 392.658 118.307 390.987 115.186 389.299L115.186 389.299C113.895 388.6 112.598 387.898 111.263 387.247C109.86 386.563 108.383 386.179 106.904 385.795C105.682 385.477 104.459 385.16 103.273 384.671C101.064 383.762 99.4498 382.328 97.7404 380.81C97.3096 380.428 96.8727 380.04 96.4188 379.654C94.9793 378.43 93.7865 377.351 92.6642 375.878C92.5644 375.747 92.4709 375.614 92.3796 375.485C91.8874 374.788 91.4582 374.179 90.4367 374.341C89.1138 374.551 87.2093 376.462 85.8144 377.862C85.387 378.291 85.0074 378.671 84.7071 378.941C83.5431 379.984 82.3118 380.683 81.0585 381.396L81.0584 381.396C80.2523 381.854 79.4371 382.317 78.6249 382.88L77.4983 383.661L77.4981 383.661C73.6214 386.347 69.8245 388.978 65.9955 391.812C61.4909 395.147 56.2812 397.302 51.1069 399.442L51.1068 399.442C49.6318 400.053 48.1596 400.661 46.7075 401.296C45.2329 401.941 43.7679 402.409 42.2874 402.881L42.2874 402.881C41.5338 403.121 40.7762 403.363 40.0113 403.63C39.0117 403.979 38.0408 404.392 37.0705 404.805L37.0703 404.805C35.4646 405.488 33.8604 406.171 32.1303 406.56C28.0858 407.469 23.4818 408.063 19.3395 407.647C18.0469 407.517 16.7987 407.15 15.5534 406.785C14.2474 406.401 12.9447 406.019 11.5972 405.911C10.0656 405.788 8.74545 406.214 7.57769 406.943C6.35876 407.705 5.30357 408.798 4.34388 409.943C3.07149 411.465 1.57923 412.715 0 413.861V456.002Z" fill="url(#paint0_linear_27_285)"/>
</g>
<defs>
<linearGradient id="paint0_linear_27_285" x1="180" y1="301" x2="180" y2="698" gradientUnits="userSpaceOnUse">
<stop stop-color="#3C5473"/>
<stop offset="1" stop-color="#2F4C6D"/>
</linearGradient>
<clipPath id="clip0_27_285">
<rect width="360" height="698" fill="white"/>
</clipPath>
</defs>
</svg>
