<svg width="360" height="698" viewBox="0 0 360 698" fill="none" xmlns="http://www.w3.org/2000/svg">
<path fill-rule="evenodd" clip-rule="evenodd" d="M0 671.434V698H360V658.918V605.317C359.445 605.347 358.89 605.378 358.333 605.409C349.695 605.89 340.89 606.38 332.315 605.515C326.212 604.898 320.672 603.423 314.898 601.886C313.649 601.554 312.39 601.218 311.111 600.888C293.633 596.375 276.856 590.411 260.469 582.584C256.62 580.745 252.73 579.005 248.839 577.265L248.838 577.265L248.838 577.265C244.393 575.277 239.949 573.289 235.566 571.154C231.414 569.132 227.317 566.979 223.355 564.576C221.385 563.382 219.45 562.127 217.562 560.798C217.49 560.747 217.419 560.697 217.347 560.647L217.347 560.646C216.768 560.24 216.193 559.836 215.665 559.36C215.459 559.175 215.237 559.009 215.015 558.843L215.015 558.843C214.679 558.591 214.342 558.339 214.061 558.02C213.604 557.501 213.134 557.035 212.608 556.587C209.781 554.181 207.003 551.743 204.521 548.951C204.48 548.905 204.433 548.848 204.381 548.786C204.089 548.432 203.65 547.9 203.288 548.119C203.188 548.18 203.158 548.232 203.119 548.299C203.099 548.332 203.078 548.369 203.044 548.412C202.852 548.665 202.631 548.778 202.355 548.919L202.326 548.934L202.232 548.981C201.872 549.164 201.531 549.338 201.21 549.6C201.074 549.711 200.943 549.825 200.813 549.938L200.812 549.938C200.537 550.177 200.263 550.414 199.955 550.619C199.482 550.933 198.977 551.168 198.471 551.403C198.044 551.602 197.616 551.801 197.207 552.048C196.508 552.471 195.886 552.968 195.259 553.468L195.258 553.469C195.043 553.64 194.828 553.812 194.609 553.981L194.559 554.02L194.559 554.02C194.37 554.166 194.268 554.245 194.018 554.341C194.003 554.346 193.988 554.352 193.972 554.358C193.936 554.371 193.9 554.383 193.863 554.396C193.746 554.437 193.626 554.478 193.52 554.531C193.305 554.639 193.101 554.762 192.897 554.885C192.725 554.989 192.553 555.092 192.375 555.186C192.212 555.272 192.042 555.341 191.871 555.41C191.659 555.495 191.446 555.581 191.246 555.7C190.89 555.912 190.517 556.066 190.13 556.225L190.128 556.226C190.056 556.256 189.984 556.286 189.911 556.316C189.858 556.338 189.807 556.361 189.757 556.383L189.755 556.384L189.755 556.384C189.604 556.452 189.458 556.517 189.286 556.549C189.166 556.572 189.044 556.573 188.922 556.575H188.922C188.813 556.576 188.704 556.578 188.597 556.594C188.483 556.611 188.371 556.642 188.26 556.674L188.26 556.674C188.134 556.709 188.009 556.745 187.879 556.76C187.678 556.782 187.491 556.742 187.302 556.702L187.301 556.701C187.188 556.677 187.074 556.653 186.956 556.642C186.651 556.613 186.334 556.643 186.021 556.673C185.863 556.688 185.706 556.703 185.552 556.71C185.011 556.735 184.47 556.744 183.928 556.741L183.683 556.74C180.546 556.724 177.544 556.709 174.466 555.811C165.103 553.079 156.895 546.161 149.283 539.747L149.282 539.746C147.887 538.57 146.511 537.41 145.152 536.297C135.292 528.218 126.417 519.341 117.442 510.363L117.44 510.362C115.438 508.358 113.43 506.35 111.405 504.344C105.298 498.296 98.7758 492.786 92.2515 487.274L92.2508 487.273C87.5147 483.272 82.7772 479.27 78.1961 475.059C72.518 469.841 66.305 465.294 60.0871 460.744L60.0869 460.744L60.0867 460.743C54.3261 456.528 48.5612 452.309 43.2135 447.55C40.9646 445.549 38.6606 443.598 36.3568 441.648L36.3568 441.648L36.3567 441.647C28.5892 435.071 20.8245 428.497 15.1801 420C12.7682 420.742 10.6126 423.556 8.74173 425.998C8.00592 426.959 7.31415 427.862 6.66815 428.559C4.50923 430.887 2.28001 433.127 0 435.304V671.434Z" fill="url(#paint0_linear_27_264)"/>
<defs>
<linearGradient id="paint0_linear_27_264" x1="180" y1="783" x2="180.501" y2="469.636" gradientUnits="userSpaceOnUse">
<stop stop-color="#2F1949"/>
<stop offset="1" stop-color="#012D52"/>
</linearGradient>
</defs>
</svg>
