<svg width="360" height="698" viewBox="0 0 360 698" fill="none" xmlns="http://www.w3.org/2000/svg">
<path fill-rule="evenodd" clip-rule="evenodd" d="M0 224.817C0.449751 224.457 0.899325 224.097 1.34846 223.735C1.6293 223.509 1.92881 223.183 2.24911 222.834C3.14068 221.864 4.19334 220.718 5.45253 221.063C5.98645 221.209 6.45744 221.699 6.86877 222.126C6.96048 222.221 7.04922 222.313 7.13504 222.398C8.38312 223.629 9.619 224.9 10.8553 226.172L10.8555 226.172L10.8564 226.173C11.6543 226.994 12.4525 227.815 13.2541 228.625C15.874 231.273 18.6932 234.044 22.0812 235.69C24.0654 236.654 26.1789 237.422 28.2763 238.183L28.2767 238.183C29.1264 238.492 29.9734 238.799 30.8081 239.119C34.2226 240.424 36.6239 242.607 39.1702 244.923C39.7368 245.438 40.3105 245.959 40.9041 246.479C43.3939 248.661 46.1304 250.605 48.8527 252.539C50.0856 253.415 51.3155 254.288 52.5183 255.181C55.677 257.526 58.1186 259.992 60.3329 263.193C62.1596 265.835 63.9212 267.748 66.8105 269.187C67.5895 269.575 68.3293 270.02 69.0668 270.463C70.2844 271.195 71.4959 271.924 72.8675 272.386C74.7245 273.013 75.9821 274.173 77.2723 275.364L77.2725 275.364C78.1287 276.154 78.9993 276.958 80.0691 277.627C82.395 279.083 84.9036 278.662 87.4152 278.24L87.4153 278.24C88.3675 278.08 89.3201 277.92 90.2633 277.862C90.7649 277.831 91.2915 277.869 91.8222 277.907C92.69 277.969 93.5688 278.033 94.3673 277.798C95.6693 277.415 97.7674 275.736 98.7418 274.758C99.1508 274.347 99.4855 273.926 99.7902 273.542C100.786 272.287 101.463 271.434 103.371 272.684C105.119 273.828 106.299 274.176 108.36 274.689C109.764 275.039 111.102 275.477 112.436 275.914C114.427 276.567 116.409 277.216 118.583 277.561C120.254 277.826 121.906 278.17 123.557 278.513L123.558 278.513L123.558 278.513C125.14 278.842 126.721 279.171 128.32 279.431C129.84 279.679 131.375 279.69 132.904 279.701C134.494 279.712 136.078 279.724 137.634 280.001C139.902 280.406 142.439 281.458 144.342 282.751C146.991 284.55 148.34 284.165 150.73 283.483C151.221 283.343 151.756 283.191 152.354 283.042C154.02 282.629 154.907 282.793 156.369 283.064C156.579 283.103 156.8 283.144 157.037 283.186C158.033 283.362 159.061 283.427 160.095 283.494C161.045 283.554 162 283.615 162.938 283.762C163.768 283.892 164.509 283.886 165.268 283.88H165.268C165.673 283.876 166.083 283.873 166.514 283.89C167.399 283.925 168.25 284.088 169.102 284.251L169.102 284.251C169.935 284.411 170.769 284.571 171.636 284.611C174.775 284.758 178.139 284.822 181.262 284.428C186.876 283.719 192.575 283.792 198.254 283.865C199.982 283.887 201.708 283.909 203.429 283.909C204.419 283.909 205.424 283.939 206.434 283.969C208.395 284.028 210.374 284.087 212.291 283.928C212.659 283.897 213.021 283.847 213.376 283.798C214.68 283.619 215.903 283.451 217.075 284.279C217.718 284.732 218.501 285.691 219.216 286.568L219.216 286.568C219.628 287.073 220.018 287.551 220.345 287.887C222.208 289.807 224.483 291.389 226.72 292.946L226.721 292.946L226.721 292.946C227.503 293.49 228.281 294.031 229.035 294.583L229.257 294.745L229.257 294.745C232.058 296.793 234.982 298.93 238.077 300.491C241.029 301.98 244.33 303.217 247.52 304.412L247.52 304.412C248.332 304.717 249.137 305.018 249.927 305.321C254.716 307.153 258.895 306.543 263.703 305.456C264.199 305.344 264.63 305.223 265.037 305.108C265.933 304.855 266.712 304.635 267.81 304.622C268.563 304.613 269.316 304.616 270.069 304.618C270.413 304.619 270.758 304.62 271.103 304.62C272.39 304.62 273.701 304.584 275.02 304.548C278.521 304.451 282.087 304.353 285.454 304.923C286.422 305.087 287.366 305.426 288.31 305.766C289.63 306.24 290.948 306.714 292.33 306.707C295.798 306.688 299.321 305.183 302.497 303.825C302.871 303.665 303.24 303.507 303.604 303.354C304.937 302.793 306.299 302.387 307.664 301.98C308.572 301.709 309.481 301.438 310.384 301.121C311.066 300.881 311.742 300.601 312.419 300.321C313.417 299.908 314.416 299.495 315.442 299.207C316.285 298.97 317.142 298.843 317.997 298.718C318.874 298.588 319.749 298.46 320.608 298.211C321.263 298.022 321.889 297.763 322.514 297.503C323.193 297.222 323.873 296.94 324.592 296.747C326.479 296.242 327.915 295.4 329.49 294.478C329.937 294.216 330.395 293.948 330.877 293.679C331.246 293.473 331.684 293.193 332.166 292.885L332.167 292.884C334.072 291.667 336.671 290.006 338.477 290.715C339.275 291.029 340.041 291.878 340.762 292.678C341.166 293.125 341.555 293.557 341.928 293.87C346.981 298.113 353.718 300.641 360 302.868V399.709V698H0V224.817Z" fill="url(#paint0_linear_27_299)"/>
<defs>
<linearGradient id="paint0_linear_27_299" x1="115.002" y1="204.072" x2="104" y2="726.5" gradientUnits="userSpaceOnUse">
<stop stop-color="#5D6783"/>
<stop offset="0.461" stop-color="#F5BA9D"/>
</linearGradient>
</defs>
</svg>
